<svg width="301" height="253" viewBox="0 0 301 253" fill="none" xmlns="http://www.w3.org/2000/svg">
<path d="M292.676 252.64H8.16229C3.6536 252.64 0 247.16 0 240.397C0 233.634 3.6536 228.153 8.16229 228.153H292.676C297.185 228.153 300.839 233.634 300.839 240.397C300.839 247.16 297.185 252.64 292.676 252.64Z" fill="#DADADA"/>
<path d="M154 37H119V17.8729C119 13.1327 120.844 8.58665 124.126 5.23484C127.408 1.88302 131.859 0 136.5 0C141.141 0 145.592 1.88302 148.874 5.23484C152.156 8.58665 154 13.1327 154 17.8729V37Z" fill="#2F2E41"/>
<path d="M170.001 246H177.454L181 217L170 217.001L170.001 246Z" fill="#FFB6B6"/>
<path d="M168 243.001L182.658 243C185.136 243 187.512 244.02 189.264 245.837C191.016 247.653 192 250.116 192 252.684V252.999L168 253L168 243.001Z" fill="black"/>
<path d="M80 236.17L86.5692 240L104 215.653L94.3044 210L80 236.17Z" fill="#FFB6B6"/>
<path d="M78.9001 233L92.0919 240.136C94.3214 241.342 95.96 243.347 96.6465 245.711C97.333 248.074 97.0116 250.602 95.753 252.738L95.5987 253L74 241.317L78.9001 233Z" fill="black"/>
<path d="M127.639 114.813L127.054 117.732C127.054 117.732 125.301 119.483 126.178 120.359C127.054 121.235 126.762 125.322 126.762 125.322C126.272 132.774 116.523 174.65 114.779 182.828C114.779 182.828 101.335 191.586 90.8137 208.809C80.2923 226.032 80 230.41 80 230.41L91.6905 235.373L120.917 200.051C120.917 200.051 129.1 195.089 132.023 190.71C134.946 186.331 153.066 141.085 153.066 141.085L163.295 188.375C163.295 188.375 162.711 205.598 165.341 216.69C166.958 223.691 167.936 230.823 168.264 238L182 236.54C182 236.54 181.123 195.089 179.662 190.71C179.662 190.71 185.799 140.209 173.524 120.067L163.632 93.7249L153.943 90L127.639 114.813Z" fill="black"/>
<path d="M136.5 5C154.501 5.31429 154.499 32.6884 136.499 33C118.499 32.6857 118.501 5.31162 136.5 5Z" fill="#FFB8B8"/>
<path d="M151 18H147.807L146.938 15.9532L147.373 18H129.911L130.479 13.7171L126.234 18H122V15.6792C121.996 13.884 122.369 12.1058 123.096 10.4463C123.823 8.78681 124.891 7.27863 126.237 6.00807C127.584 4.73751 129.184 3.7295 130.945 3.04175C132.706 2.35399 134.594 2 136.5 2C138.406 2 140.294 2.35399 142.055 3.04175C143.816 3.7295 145.416 4.73751 146.763 6.00807C148.109 7.27863 149.177 8.78681 149.904 10.4463C150.631 12.1058 151.004 13.884 151 15.6792V18Z" fill="#2F2E41"/>
<path d="M155.746 41L121 41.2821L128.344 116C128.344 116 168.975 113.849 169 101.408L165.193 90.3522L155.746 41Z" fill="#17616C"/>
<path d="M220.512 171.1L99.1495 195.977C97.9085 196.228 96.4772 194.399 95.9498 191.886L83.1937 130.913C82.668 128.4 83.2493 126.159 84.4889 125.9L205.851 101.023C207.092 100.772 208.524 102.601 209.051 105.114L221.807 166.087C222.331 168.6 221.75 170.842 220.512 171.1Z" fill="white"/>
<path d="M220.512 171.1L99.1495 195.977C97.9085 196.228 96.4772 194.399 95.9498 191.886L83.1937 130.913C82.668 128.4 83.2493 126.159 84.4889 125.9L205.851 101.023C207.092 100.772 208.524 102.601 209.051 105.114L221.807 166.087C222.331 168.6 221.75 170.842 220.512 171.1ZM84.8698 127.721C84.1252 127.874 83.7782 129.221 84.0925 130.729L96.8485 191.701C97.1639 193.209 98.0236 194.307 98.7685 194.156L220.131 169.278C220.876 169.126 221.223 167.779 220.908 166.271L208.152 105.298C207.837 103.791 206.977 102.693 206.232 102.844L84.8698 127.721Z" fill="#CACACA"/>
<path d="M184.506 114.439C183.725 114.083 183.033 113.566 182.48 112.923C181.927 112.28 181.526 111.527 181.306 110.718C181.085 109.909 181.05 109.062 181.204 108.239C181.357 107.415 181.695 106.634 182.193 105.95L175 94.8794L180.872 89L190.803 104.772C191.932 105.66 192.686 106.919 192.921 108.309C193.157 109.7 192.859 111.126 192.082 112.318C191.306 113.509 190.106 114.383 188.71 114.774C187.313 115.165 185.818 115.046 184.506 114.439Z" fill="#FFB6B6"/>
<path d="M150 44.3034L155.057 41C155.057 41 158.96 41.8672 163.111 49.7813C167.261 57.6954 184 93.0758 184 93.0758L177.12 100L158.765 72.2433L150 44.3034Z" fill="#17616C"/>
<path d="M119.658 122.902C120.209 122.269 120.605 121.529 120.818 120.736C121.032 119.943 121.057 119.115 120.894 118.312C120.73 117.509 120.38 116.749 119.87 116.086C119.359 115.423 118.7 114.873 117.939 114.475L119.496 101.772L111.506 99L109.575 116.969C108.948 118.214 108.829 119.632 109.241 120.954C109.653 122.276 110.567 123.41 111.81 124.141C113.053 124.873 114.538 125.15 115.985 124.922C117.431 124.694 118.738 123.975 119.658 122.902Z" fill="#FFB6B6"/>
<path d="M125.6 47.4357L120.935 41.0412C120.935 41.0412 117.743 40.3464 113.971 44.6616C110.2 48.9769 108 102.918 108 102.918L121.829 106L130 67.7791L125.6 47.4357Z" fill="#17616C"/>
<path d="M129.913 161.84L134.454 160.838L135.617 166.105C135.719 166.569 135.647 167.008 135.4 167.423C135.173 167.833 134.766 168.102 134.181 168.231L131.457 168.833L133.696 178.974L125.523 180.778L123.284 170.638L105.545 174.554C104.96 174.683 104.385 174.62 103.82 174.363C103.276 174.103 102.883 173.713 102.642 173.195L100.65 168.778L114.998 136.847L123.958 134.869L129.913 161.84ZM119.2 152.142C119.044 151.436 118.897 150.674 118.759 149.858C118.637 149.018 118.531 148.152 118.44 147.262L110.388 166.151L121.74 163.645L119.2 152.142Z" fill="black"/>
<path d="M169.512 147.922C170.363 151.777 170.687 155.208 170.484 158.216C170.28 161.224 169.647 163.819 168.583 166.001C167.54 168.178 166.11 169.944 164.292 171.298C162.495 172.647 160.426 173.58 158.085 174.097C155.744 174.614 153.474 174.639 151.276 174.172C149.098 173.7 147.077 172.696 145.214 171.161C143.351 169.625 141.694 167.536 140.243 164.893C138.812 162.246 137.671 158.995 136.82 155.141C135.969 151.286 135.635 147.857 135.818 144.854C136.022 141.846 136.645 139.253 137.688 137.076C138.731 134.898 140.144 133.147 141.925 131.822C143.723 130.473 145.792 129.54 148.133 129.023C150.474 128.506 152.744 128.482 154.942 128.949C157.156 129.391 159.195 130.38 161.057 131.916C162.941 133.447 164.608 135.534 166.059 138.177C167.51 140.819 168.661 144.068 169.512 147.922ZM159.826 150.061C159.153 147.014 158.411 144.564 157.6 142.711C156.784 140.838 155.931 139.418 155.04 138.451C154.169 137.479 153.286 136.88 152.389 136.655C151.489 136.41 150.625 136.378 149.797 136.561C148.97 136.743 148.199 137.136 147.486 137.738C146.788 138.315 146.248 139.228 145.868 140.476C145.507 141.72 145.352 143.363 145.4 145.405C145.465 147.422 145.834 149.955 146.506 153.002C147.184 156.069 147.918 158.532 148.709 160.389C149.52 162.241 150.353 163.666 151.208 164.662C152.079 165.634 152.954 166.245 153.835 166.495C154.731 166.721 155.593 166.742 156.421 166.559C157.248 166.377 158.021 165.994 158.739 165.412C159.453 164.81 160 163.885 160.38 162.637C160.776 161.365 160.952 159.717 160.908 157.695C160.864 155.673 160.503 153.129 159.826 150.061Z" fill="black"/>
<path d="M202.573 145.798L207.113 144.795L208.276 150.062C208.379 150.526 208.306 150.966 208.059 151.38C207.832 151.79 207.426 152.059 206.841 152.189L204.117 152.79L206.356 162.931L198.182 164.735L195.943 154.595L178.205 158.511C177.619 158.641 177.045 158.577 176.48 158.321C175.936 158.06 175.543 157.67 175.301 157.152L173.31 152.735L187.657 120.805L196.618 118.826L202.573 145.798ZM191.86 136.099C191.704 135.393 191.557 134.632 191.419 133.816C191.297 132.975 191.19 132.109 191.1 131.219L183.048 150.109L194.399 147.602L191.86 136.099Z" fill="black"/>
</svg>
