<svg width="55" height="55" viewBox="0 0 55 55" fill="none" xmlns="http://www.w3.org/2000/svg">
<path d="M27.5314 2.00002C21.6306 1.99275 15.9098 4.0322 11.3444 7.77072C6.77888 11.5092 3.65128 16.7154 2.49467 22.5018C1.33807 28.2882 2.22405 34.2967 5.00161 39.503C7.77917 44.7092 12.2764 48.7911 17.7266 51.0527C23.1768 53.3143 29.2428 53.6158 34.8904 51.9056C40.538 50.1954 45.4177 46.5795 48.6976 41.6742C51.9776 36.7689 53.4549 30.8779 52.8776 25.0054C52.3004 19.1328 49.7043 13.6422 45.5319 9.4695C40.7594 4.69161 34.2846 2.00483 27.5314 2.00002ZM38.7261 37.2064C38.9053 37.4025 39.002 37.66 38.996 37.9255C38.9901 38.191 38.8819 38.444 38.6942 38.6318C38.5064 38.8196 38.2534 38.9277 37.9879 38.9337C37.7224 38.9396 37.4648 38.8429 37.2688 38.6638L27.5314 28.9253L17.791 38.6658C17.697 38.7692 17.5829 38.8526 17.4558 38.9108C17.3287 38.969 17.1911 39.0009 17.0514 39.0046C16.9113 39.0079 16.772 38.9827 16.642 38.9304C16.512 38.8782 16.394 38.8001 16.2951 38.7007C16.1963 38.6014 16.1187 38.4831 16.0671 38.3528C16.0155 38.2226 15.9909 38.0832 15.9949 37.9431C15.9985 37.8033 16.0305 37.6658 16.0887 37.5386C16.1469 37.4115 16.2303 37.2975 16.3337 37.2035L26.0741 27.463L16.3337 17.7226C16.1545 17.5266 16.0579 17.269 16.0638 17.0035C16.0698 16.738 16.1779 16.4851 16.3657 16.2973C16.5535 16.1095 16.8064 16.0014 17.0719 15.9954C17.3374 15.9895 17.595 16.0861 17.791 16.2653L27.5314 26.0057L37.2718 16.2653C37.3659 16.1619 37.4799 16.0785 37.607 16.0203C37.7341 15.962 37.8717 15.9301 38.0115 15.9265C38.1511 15.9232 38.29 15.9483 38.4196 16.0002C38.5493 16.0521 38.6671 16.1298 38.7658 16.2286C38.8646 16.3274 38.9423 16.4451 38.9942 16.5748C39.0462 16.7045 39.0713 16.8433 39.068 16.983C39.0643 17.1227 39.0324 17.2603 38.9742 17.3874C38.9159 17.5145 38.8326 17.6286 38.7291 17.7226L28.9887 27.468L38.7261 37.2064Z" stroke="#17616C" stroke-width="3"/>
</svg>
