<svg width="301" height="251" viewBox="0 0 301 251" fill="none" xmlns="http://www.w3.org/2000/svg">
<path d="M292.676 250.64H8.16229C3.6536 250.64 0 245.16 0 238.397C0 231.634 3.6536 226.153 8.16229 226.153H292.676C297.185 226.153 300.839 231.634 300.839 238.397C300.839 245.16 297.185 250.64 292.676 250.64Z" fill="#DADADA"/>
<path d="M122.019 188.783H88.7027C87.8329 188.783 86.9838 188.99 86.2244 189.376L86.038 189.231C85.7067 188.976 85.4098 188.686 85.1682 188.375C83.7254 186.581 83.6356 183.978 85.0991 182.073L93.5973 171.013C95.3162 168.777 98.5263 168.355 100.763 170.074L120.031 184.882C120.9 185.545 121.487 186.436 121.791 187.402C121.929 187.851 122.012 188.313 122.019 188.783Z" fill="#17616C"/>
<path d="M129.826 187.423C129.709 187.278 129.592 187.126 129.467 186.988C128.149 185.497 126.257 184.641 124.269 184.641C111.751 186.5 98.9704 186.463 85.9412 184.641C84.6848 184.641 83.4698 184.986 82.4067 185.614C81.7922 185.973 81.2262 186.436 80.7429 186.988C79.4244 188.472 78.8099 190.46 79.0516 192.435L85.1059 241.373C85.5339 244.845 88.4955 247.462 91.9886 247.462H118.222C121.715 247.462 124.676 244.845 125.104 241.373L131.159 192.435C131.38 190.647 130.896 188.852 129.826 187.423Z" fill="white"/>
<path d="M129.826 187.423C129.709 187.278 129.592 187.126 129.467 186.988C128.149 185.497 126.257 184.641 124.269 184.641C111.493 186.01 98.7172 186.01 85.9412 184.641C84.6848 184.641 83.4698 184.986 82.4067 185.614C81.7922 185.973 81.2262 186.436 80.7429 186.988C79.4244 188.472 78.8099 190.46 79.0516 192.435L85.1059 241.373C85.2647 242.678 85.7824 243.858 86.5487 244.825C87.8258 246.433 89.7864 247.455 91.961 247.462H118.222C120.659 247.462 122.84 246.185 124.076 244.238C124.614 243.389 124.973 242.422 125.104 241.373L131.159 192.435C131.38 190.647 130.896 188.852 129.826 187.423ZM129.785 192.262L123.738 241.2C123.738 241.214 123.731 241.235 123.731 241.249C123.365 244.01 121.004 246.081 118.222 246.081H91.9886C89.2065 246.081 86.8456 244.01 86.4797 241.249C86.4797 241.235 86.4728 241.214 86.4728 241.2L80.4254 192.262C80.2321 190.681 80.7222 189.093 81.7785 187.899C82.2548 187.361 82.8278 186.926 83.4629 186.615C84.2223 186.228 85.0714 186.021 85.9412 186.021C98.7173 188.507 111.493 188.507 124.269 186.021C125.857 186.021 127.376 186.705 128.432 187.899C128.542 188.023 128.653 188.161 128.749 188.293C129.585 189.432 129.958 190.854 129.785 192.262Z" fill="#3F3D56"/>
<path d="M124.435 241.249L124.076 244.238C122.84 246.185 120.659 247.462 118.222 247.462H91.961C89.7864 247.455 87.8258 246.433 86.5487 244.825L86.4658 241.249H124.435Z" fill="#3F3D56"/>
<path d="M152.071 80.9672L119.028 103.674L114.954 99.2707L145.35 73.8018L152.071 80.9672Z" fill="#A0616A"/>
<path d="M116.48 107.544C119.732 104.932 121.112 101.249 119.561 99.3182C118.01 97.3873 114.116 97.9393 110.864 100.551C107.612 103.163 106.233 106.846 107.784 108.777C109.335 110.708 113.228 110.156 116.48 107.544Z" fill="#A0616A"/>
<path d="M169.036 243.699L162.757 243.698L159.771 219.48L169.037 219.481L169.036 243.699Z" fill="#A0616A"/>
<path d="M147.524 243.556C147.329 243.885 147.226 244.948 147.226 245.331C147.226 246.508 148.18 247.462 149.357 247.462H168.801C169.603 247.462 170.254 246.811 170.254 246.008V245.199C170.254 245.199 171.216 242.766 169.236 239.767C169.236 239.767 166.775 242.115 163.097 238.437L162.012 236.472L154.162 242.214L149.81 242.75C148.858 242.867 148.014 242.731 147.524 243.556Z" fill="#2F2E41"/>
<path d="M190.253 243.699L183.974 243.698L180.987 219.48L190.254 219.481L190.253 243.699Z" fill="#A0616A"/>
<path d="M168.742 243.556C168.547 243.885 168.443 244.948 168.443 245.331C168.443 246.508 169.397 247.462 170.574 247.462H190.018C190.821 247.462 191.472 246.811 191.472 246.008V245.199C191.472 245.199 192.434 242.766 190.454 239.767C190.454 239.767 187.992 242.115 184.315 238.437L183.23 236.472L175.379 242.214L171.028 242.75C170.076 242.867 169.232 242.731 168.742 243.556Z" fill="#2F2E41"/>
<path d="M158.229 108.715L151.036 177.764C151.036 177.764 156.071 224.875 157.15 224.875C158.229 224.875 159.308 225.764 158.229 226.758C157.15 227.752 155.711 228.471 157.15 228.471C158.588 228.471 158.763 228.032 158.676 229.51C158.588 230.988 157.509 232.067 157.509 232.067L172.254 230.988L170.456 182.798L177.289 144.318C177.289 144.318 179.447 224.515 180.166 225.234C180.885 225.954 180.885 224.155 180.885 225.954C180.885 227.752 180.166 228.471 180.166 228.471L180.132 232.067H190.836L206.059 132.091L203.542 106.917L158.229 108.715Z" fill="#2F2E41"/>
<path d="M193.472 34.2727H180.526L172.759 36.2166C168.564 38.7072 161.044 46.1196 161.234 50.9944L162.904 93.9707C162.904 93.9707 157.183 107.455 158.262 107.455C159.34 107.455 154.093 111.772 154.093 114.29C154.093 116.807 152.295 116.447 153.374 117.526C154.453 118.605 206.059 117.526 206.059 117.526C206.059 117.526 206.599 116.447 206.599 114.649C206.599 112.851 207.669 111.781 207.669 111.781V108.404L204.441 96.6679L210.195 44.1624L193.472 34.2727Z" fill="#17616C"/>
<path d="M128.855 86.7237L133.264 94.3566C135.671 92.899 147.299 85.9134 149.311 85.7509C150.068 85.6895 150.238 85.5473 150.272 85.5048C150.305 85.463 150.295 85.3693 150.275 85.2196C150.244 84.9877 150.196 84.6372 150.468 84.3378C150.867 83.899 151.216 84.1632 151.385 84.29C151.647 84.4875 152.085 84.8178 153.499 84.6176C153.861 84.5664 154.088 84.5226 154.231 84.4882L154.215 84.4733C153.907 84.1828 153.391 83.6967 153.354 82.916C153.32 82.2169 153.311 82.0295 153.566 81.9088C153.801 81.7989 153.984 81.9641 154.093 82.0625C154.278 82.2304 154.581 82.5048 155.206 82.4812C156.803 81.9587 171.65 60.5223 174.548 51.9827C175.27 49.8564 175.181 47.8818 174.283 46.1148C172.562 42.7268 168.348 41.0296 167.308 40.6541L146.232 70.233L128.855 86.7237Z" fill="#17616C"/>
<path d="M187.228 31.5054C194.93 31.5054 201.173 25.2618 201.173 17.5599C201.173 9.85809 194.93 3.6145 187.228 3.6145C179.526 3.6145 173.282 9.85809 173.282 17.5599C173.282 25.2618 179.526 31.5054 187.228 31.5054Z" fill="#A0616A"/>
<path d="M204.099 9.08454C202.874 6.4564 200.158 4.41431 197.262 4.5633C197.436 3.83382 197.113 3.05314 196.593 2.51284C196.073 1.97258 195.38 1.63449 194.686 1.35058C191.254 -0.0526036 187.39 -0.374518 183.773 0.4416C183.41 -0.0610535 178.249 1.20758 178.866 1.4769C179.483 1.74627 177.227 2.38959 177.12 3.05453C177.003 3.78305 176.232 4.22968 175.502 4.34332C174.773 4.457 174.021 4.34635 173.296 4.48447C171.835 4.76278 173.47 6.55871 173.449 8.04562C173.428 9.53257 171.754 10.5516 173.206 10.8709C174.705 11.2005 172.632 13.8548 174.14 13.5684C177.551 12.9203 192.447 11.5386 193.773 14.7478C194.141 15.6389 194.372 16.6485 195.095 17.2858C196.08 18.1534 197.72 18.0837 198.526 19.1198C199.175 19.955 198.989 21.1813 198.509 22.124C198.028 23.0667 197.298 23.8696 196.863 24.834C196.28 26.1269 196.283 27.5671 196.449 28.9968C196.578 28.9296 196.776 28.8624 197.073 28.7951L196.945 28.8113C200.667 26.1004 203.401 22.0635 204.538 17.6018C205.254 14.7917 205.325 11.7127 204.099 9.08454Z" fill="#2F2E41"/>
<path d="M213.904 125.271H189.601C186.781 125.271 184.494 127.557 184.494 130.378V144.326C184.494 147.147 186.781 149.433 189.601 149.433H213.904C216.725 149.433 219.011 147.147 219.011 144.326V130.378C219.011 127.557 216.725 125.271 213.904 125.271Z" fill="#17616C"/>
<path d="M218.75 86.2786L204.963 123.927L199.092 122.696L209.121 84.3291L218.75 86.2786Z" fill="#A0616A"/>
<path d="M205.128 128.556C206.267 124.544 205.258 120.742 202.876 120.066C200.493 119.391 197.638 122.096 196.5 126.108C195.361 130.121 196.37 133.922 198.753 134.598C201.135 135.274 203.99 132.569 205.128 128.556Z" fill="#A0616A"/>
<path d="M196.23 36.2168C196.23 36.2168 211.274 38.7682 214.87 47.0396C218.466 55.311 222.063 81.9234 220.984 83.0023C219.905 84.0811 218.826 83.0023 219.905 84.0811C220.984 85.16 222.812 83.7385 221.178 85.708C219.545 87.6774 218.826 86.5985 218.826 87.3178C218.826 88.037 220.265 87.8416 218.826 89.3778C217.388 90.914 212.712 106.738 212.712 106.738L203.722 103.861L205.52 79.7656L196.23 36.2168Z" fill="#17616C"/>
<path d="M124.16 105.251H99.8569C97.0364 105.251 94.75 107.538 94.75 110.358V124.306C94.75 127.127 97.0364 129.413 99.8569 129.413H124.16C126.981 129.413 129.267 127.127 129.267 124.306V110.358C129.267 107.538 126.981 105.251 124.16 105.251Z" fill="#3F3D56"/>
<path d="M80.2615 193.615L80.2441 194.996L129.818 195.621L129.835 194.24L80.2615 193.615Z" fill="#3F3D56"/>
</svg>
