<svg width="309" height="292" viewBox="0 0 309 292" fill="none" xmlns="http://www.w3.org/2000/svg">
<path d="M292.676 291.64H8.16229C3.6536 291.64 0 286.16 0 279.397C0 272.634 3.6536 267.153 8.16229 267.153H292.676C297.185 267.153 300.839 272.634 300.839 279.397C300.839 286.16 297.185 291.64 292.676 291.64Z" fill="#DADADA"/>
<path d="M274.582 87.1117L267.582 89.5117L264.582 80.8117C258.982 64.7117 241.282 56.1117 225.182 61.7117C209.082 67.3117 200.482 85.0117 206.082 101.112L209.082 109.812L202.082 112.212C196.582 114.112 193.682 120.112 195.582 125.612L215.282 182.512C217.182 188.012 223.282 191.012 228.682 189.112L301.082 164.012C306.582 162.112 309.582 156.012 307.682 150.512L287.982 93.6117C286.182 88.1117 280.182 85.1117 274.582 87.1117ZM219.382 96.4117C216.282 87.6117 220.982 77.9117 229.782 74.8117C238.582 71.7117 248.282 76.4117 251.382 85.3117L254.382 94.0117L222.382 105.112L219.382 96.4117ZM261.382 148.312L266.382 162.812C266.582 163.412 266.182 164.012 265.582 164.312L258.582 166.712C258.082 166.912 257.382 166.612 257.182 166.012L252.182 151.512C246.782 151.312 241.782 147.912 239.882 142.412C237.482 135.412 241.182 127.712 248.182 125.212C255.182 122.812 262.882 126.512 265.382 133.512C267.282 139.012 265.482 144.812 261.382 148.312Z" fill="#17616C"/>
<path d="M156.263 244.2C156.263 244.2 154.163 255.8 153.663 257.8C153.263 259.4 152.063 260.6 150.863 261.8C150.463 262.2 150.163 263 149.963 263.6C149.763 264.1 149.863 264.7 150.163 265.2C155.463 273.7 166.563 275.3 166.663 274.6C166.863 273.3 164.763 271.1 162.363 270.2C159.963 269.4 158.163 267.2 157.563 264.7C157.063 262.7 157.063 260.6 157.663 258.6L160.263 249.7L156.263 244.2Z" fill="#B97A59"/>
<path d="M149.764 245.5L152.364 257.2C153.164 260.8 152.664 264.5 150.964 267.8C149.964 269.6 150.864 271.9 152.764 272.6C159.064 274.8 171.164 279.1 171.664 278.6C174.464 276.3 167.164 272.4 161.764 268.4C158.164 265.7 156.764 252.9 156.464 243.2L150.664 244.7C150.264 244.7 149.864 245 149.764 245.5Z" fill="#B97A59"/>
<path d="M160.564 271.7C163.164 272.6 165.964 272.8 168.564 273.2C168.864 273.2 169.164 273.4 169.364 273.5C171.864 275.4 173.164 277.4 171.664 278.6C171.064 279.1 156.764 274 151.264 272.1C150.064 271.7 149.564 270.3 150.164 269.2L151.264 267.2C154.164 269 157.264 270.6 160.564 271.7Z" fill="#0B4870"/>
<path d="M152.465 125.7C145.865 128 141.765 137 144.765 145.4C146.465 150.3 154.765 167.2 162.865 180.3C165.965 185.3 166.365 191.6 163.665 196.8C163.265 197.6 162.865 198.5 162.565 199.4C161.265 203.8 157.865 228.6 156.165 245.1C156.965 247 158.665 249.4 160.365 249.9C166.165 235 174.965 208.2 176.365 203.5C177.165 200.9 177.965 198 178.465 195.2C182.465 186.8 173.065 146.5 170.265 138.6C167.265 130.3 158.965 123.4 152.465 125.7Z" fill="#0B4870"/>
<path d="M156.565 78.9998C162.419 78.9998 167.165 72.8661 167.165 65.2998C167.165 57.7335 162.419 51.5999 156.565 51.5999C150.711 51.5999 145.965 57.7335 145.965 65.2998C145.965 72.8661 150.711 78.9998 156.565 78.9998Z" fill="#0B4870"/>
<path d="M154.065 66.6999C153.865 59.0999 147.765 52.6999 140.165 52.2999C133.465 51.8999 127.665 55.9999 125.465 61.8999C124.665 63.9999 122.665 65.2998 120.465 65.2998C119.565 65.2998 118.665 65.3999 117.665 65.5999C112.165 66.6999 107.765 71.3999 107.265 77.0999C106.765 82.1999 109.165 86.6998 112.965 89.2998C114.565 90.3998 115.565 92.1999 115.765 94.1999C117.065 103.2 125.265 109.9 134.665 108.8C142.665 107.9 149.165 101.3 149.865 93.1999C150.265 88.2999 148.565 83.6998 145.565 80.2998C150.665 77.9998 154.165 72.6999 154.065 66.6999Z" fill="#0B4870"/>
<path d="M156.564 47.0999C156.564 47.0999 162.564 50.8999 161.764 55.8999C161.764 55.8999 164.964 53.5999 165.664 45.8999C166.264 40.4999 156.564 47.0999 156.564 47.0999Z" fill="#0B4870"/>
<path d="M166.265 73.7997C169.465 75.3997 172.665 76.6997 175.965 77.4997C179.265 78.2997 182.665 78.2997 186.165 77.7997C189.765 77.2997 193.465 76.2997 197.465 75.5997C201.465 74.8997 205.665 74.6997 209.565 75.2997C210.265 75.3997 210.765 76.0997 210.665 76.7997C210.565 77.3997 210.065 77.8997 209.465 77.8997C205.665 78.0997 202.165 78.7997 198.565 80.0997C195.065 81.2997 191.465 82.8997 187.465 84.0997C183.465 85.2997 178.965 85.7997 174.665 85.2997C170.365 84.7997 166.265 83.5997 162.365 81.9997C160.065 81.0997 158.865 78.3997 159.765 76.0997C160.665 73.7997 163.365 72.5997 165.665 73.4997C165.765 73.4997 165.865 73.5997 165.965 73.5997L166.265 73.7997Z" fill="#B97A59"/>
<path d="M163.264 104.2C165.664 96.9997 170.464 81.6997 170.064 76.7997C169.764 73.5997 167.164 71.1997 163.964 71.1997H143.064C139.664 71.1997 136.764 73.8997 136.664 77.3997C136.464 83.3997 139.264 97.0997 140.864 104.3H163.264V104.2Z" fill="#17616C"/>
<path d="M156.363 245.6C156.663 245.4 156.863 245 156.863 244.6C156.463 229.3 155.463 209.8 155.163 206.1C155.163 205.7 155.063 205.3 154.963 204.8C158.263 186.7 158.763 147.9 159.063 141.1C159.463 132.2 154.063 122.1 147.163 121.7C140.163 121.4 132.663 128.6 130.463 136.8C128.963 142.2 134.663 171 140.863 191.9C142.163 196.3 142.363 200.9 141.663 205.4C141.163 208.5 141.063 211.8 141.263 214.2C141.563 217.9 145.663 232.8 149.563 245.7C149.663 246.1 149.963 246.4 150.363 246.4C152.463 246.9 154.463 246.8 156.363 245.6Z" fill="#0B4870"/>
<path d="M138.564 113.3C139.664 110.3 139.964 107 139.464 103.9C138.464 96.4997 136.564 82.6997 136.764 76.7997C136.864 73.5997 139.464 71.1997 142.564 71.1997H145.664C146.864 73.8997 149.364 75.9997 153.164 75.9997C157.064 75.9997 159.464 73.8997 160.664 71.1997H163.564C160.464 77.8997 161.564 86.7997 166.964 91.9997C165.964 95.5997 165.064 99.0997 164.464 102C163.564 105.9 163.964 110 165.564 113.7C168.264 120.1 170.364 130.3 169.664 134.4C147.764 140.6 132.664 129.6 132.664 129.6L138.564 113.3Z" fill="#17616C"/>
<path d="M156.564 72.5999L147.164 71.5999L150.164 61.2998L156.264 61.9998L156.564 72.5999Z" fill="#B97A59"/>
<path d="M156.264 61.9997L150.164 61.1997L149.264 64.3997C150.664 65.8997 152.364 69.2997 154.564 69.2997C155.264 69.2997 155.864 69.0997 156.464 68.6997L156.264 61.9997Z" fill="#AA6B4F"/>
<path d="M156.465 66.9998C154.365 66.9998 152.165 65.9998 149.065 63.2998C147.265 61.7998 145.965 59.0999 145.965 57.1999V47.0999H161.465C161.465 47.0999 162.665 52.4998 161.465 57.7998C160.665 61.7998 158.065 66.9998 156.465 66.9998Z" fill="#B97A59"/>
<path d="M148.564 55.2998C148.564 57.2998 147.664 58.8999 146.464 58.8999C145.264 58.8999 144.064 56.2999 144.064 54.3999C144.064 52.3999 145.364 51.7999 146.464 51.7999C147.664 51.6999 148.564 53.2998 148.564 55.2998Z" fill="#B97A59"/>
<path d="M144.065 48.2998C144.065 45.1998 146.665 42.5998 149.765 42.5998H154.965C156.465 42.5998 157.965 42.1998 159.165 41.4998C160.965 40.4998 163.365 40.7998 164.565 42.4998C165.965 44.2998 166.565 46.7998 163.065 49.0998C161.365 50.1998 158.865 48.9998 157.165 49.4998C157.065 49.4998 156.965 49.4998 156.865 49.4998H152.265C150.665 49.4998 149.465 50.7998 149.365 52.3998C149.365 53.3998 148.465 54.1998 147.465 54.1998H147.265L146.565 51.7998L143.965 55.2998V48.2998H144.065Z" fill="#0B4870"/>
<path d="M215.065 74.1999C215.065 74.1999 212.565 79.0999 210.865 78.7999C209.165 78.4999 207.965 78.0999 208.265 75.4999C208.565 72.9999 210.165 69.5999 211.465 67.7999C212.765 65.9999 216.365 63.8999 216.965 63.8999C218.865 63.9999 216.065 66.9999 214.765 68.5999C213.465 70.0999 212.165 71.9999 213.065 72.3999C213.965 72.7999 216.265 69.6999 217.465 69.7999C218.665 69.8999 215.065 74.1999 215.065 74.1999Z" fill="#B97A59"/>
<path d="M160.364 46.8997C159.864 49.1997 160.564 50.4997 153.064 54.0997C145.464 57.6997 143.164 56.1997 140.764 59.9997C140.764 59.9997 141.764 53.5997 145.964 51.3997C150.164 49.1997 157.364 47.7997 159.664 42.6997C159.664 42.6997 160.664 45.3997 160.364 46.8997Z" fill="#0B4870"/>
<path d="M143.064 80.5999C142.664 80.8999 142.364 81.0999 142.064 81.3999C141.764 81.5999 141.464 81.7999 141.164 81.9999C140.564 82.3999 139.964 82.7999 139.364 83.0999C138.164 83.7999 136.864 84.3999 135.564 84.9999C132.964 86.0999 130.164 86.7999 127.364 87.2999C121.664 88.0999 115.864 87.2999 110.664 85.2999C108.064 84.2999 105.664 82.9999 103.364 81.4999C101.064 79.9999 98.9644 78.2999 96.9644 76.4999C93.0644 72.8999 89.6645 68.6999 86.7645 64.3999C86.4645 63.8999 86.5644 63.2999 87.0644 62.9999C87.4644 62.6999 88.0644 62.7999 88.3644 63.1999C91.8644 66.9999 95.4644 70.4999 99.4644 73.4999C103.464 76.3999 107.764 78.8999 112.364 80.1999C114.664 80.7999 116.964 81.2999 119.264 81.3999C121.564 81.4999 123.864 81.2999 126.164 80.8999C128.464 80.4999 130.664 79.6999 132.764 78.7999C133.764 78.2999 134.864 77.7999 135.864 77.1999C136.364 76.8999 136.864 76.5999 137.264 76.2999C137.464 76.0999 137.764 75.9999 137.964 75.7999L138.564 75.3999L138.764 75.1999C140.264 73.9999 142.464 74.2999 143.664 75.7999C144.764 77.2999 144.564 79.3999 143.064 80.5999Z" fill="#B97A59"/>
<path d="M158.863 47.3997C158.863 47.3997 159.163 55.1997 165.963 58.8997C165.963 58.8997 162.963 52.9997 163.163 49.1997C163.363 45.2997 158.463 44.6997 158.863 47.3997Z" fill="#0B4870"/>
<path d="M148.264 268.4C147.764 268 147.564 267.2 147.864 266.6C148.164 266.1 148.864 264.8 149.364 263.8C149.564 263.4 150.164 263.3 150.464 263.7C153.864 268.2 158.564 271.2 163.864 270.8C165.764 271.6 167.364 273.9 167.164 275C167.164 275.2 164.864 275.8 162.164 274.9C150.364 271 148.264 268.4 148.264 268.4Z" fill="#0B4870"/>
<path d="M88.7639 59.7999C88.7639 59.7999 92.0639 64.1999 91.0639 65.6999C90.0639 67.1999 89.0639 67.9999 86.9639 66.5999C84.7639 65.2 82.4639 62.2999 81.3639 60.1999C80.2639 58.0999 80.0639 53.9999 80.2639 53.4999C81.2639 51.7999 82.7639 55.6999 83.5639 57.5999C84.3639 59.4999 85.4639 61.4999 86.2639 60.7999C87.0639 60.1999 85.1639 56.6999 85.8639 55.6999C86.5639 54.5999 88.7639 59.7999 88.7639 59.7999Z" fill="#B97A59"/>
<path d="M143.864 7.10001L137.364 0L57.7641 72.8C52.2641 69.3 45.2641 68.4 38.6641 70.9C27.6641 75.1 22.1641 87.4 26.4641 98.4C30.7641 109.4 42.9641 114.9 53.9641 110.6C64.9641 106.4 70.4641 94.1 66.1641 83.1C65.8641 82.3 65.4641 81.5 65.0641 80.7L125.364 24.4L132.564 31.5L139.764 24.2L134.064 18.5L136.264 15.9L142.164 21.2L147.164 15.5L140.964 9.80002L143.864 7.10001ZM51.2641 103.6C44.1641 106.3 36.0641 102.8 33.3641 95.6C30.6641 88.5 34.1641 80.4 41.3641 77.7C48.4641 75 56.5641 78.5 59.2641 85.7C61.9641 92.9 58.3641 100.9 51.2641 103.6Z" fill="#17616C"/>
</svg>
