<svg width="301" height="280" viewBox="0 0 301 280" fill="none" xmlns="http://www.w3.org/2000/svg">
<path d="M194.589 245.802H34.7366C31.2152 245.802 28.3525 242.939 28.3525 239.418V24.283C28.3525 20.7616 31.2152 17.8989 34.7366 17.8989H82.5152V19.648H34.7366C32.183 19.648 30.1016 21.7294 30.1016 24.283V239.418C30.1016 241.971 32.183 244.053 34.7366 244.053H194.589C197.143 244.053 199.224 241.971 199.224 239.418V24.283C199.224 21.7294 197.143 19.648 194.589 19.648H146.822V17.8989H194.589C198.111 17.8989 200.973 20.7616 200.973 24.283V239.418C200.973 242.933 198.111 245.802 194.589 245.802Z" fill="#17616C"/>
<path d="M187.92 234.491H41.4067C40.1649 234.491 39.1562 233.482 39.1562 232.241V31.4599C39.1562 30.2181 40.1649 29.2095 41.4067 29.2095H187.92C189.162 29.2095 190.17 30.2181 190.17 31.4599V232.241C190.17 233.482 189.162 234.491 187.92 234.491Z" fill="#F2F2F2"/>
<path d="M147.581 35.1678H81.7461V13.6252H100.805C100.933 6.09258 107.102 0 114.663 0C122.225 0 128.394 6.09258 128.522 13.6252H147.581V35.1678ZM83.4952 33.4188H145.832V15.3743H126.697L126.755 14.2199C126.761 14.1033 126.773 13.9808 126.773 13.8584C126.773 7.18283 121.339 1.74906 114.663 1.74906C107.988 1.74906 102.554 7.18283 102.554 13.8584C102.554 13.9808 102.566 14.1033 102.572 14.2199L102.63 15.3743H83.4952V33.4188Z" fill="#17616C"/>
<path d="M114.662 22.0267C110.161 22.0267 106.494 18.3653 106.494 13.8586C106.494 9.35181 110.156 5.69043 114.662 5.69043C119.169 5.69043 122.83 9.35181 122.83 13.8586C122.83 18.3653 119.163 22.0267 114.662 22.0267ZM114.662 7.44533C111.123 7.44533 108.243 10.3255 108.243 13.8644C108.243 17.4033 111.123 20.2834 114.662 20.2834C118.201 20.2834 121.081 17.4033 121.081 13.8644C121.081 10.3255 118.201 7.44533 114.662 7.44533Z" fill="#17616C"/>
<path d="M292.676 279.64H8.16229C3.6536 279.64 0 274.16 0 267.397C0 260.634 3.6536 255.153 8.16229 255.153H292.676C297.185 255.153 300.839 260.634 300.839 267.397C300.839 274.16 297.185 279.64 292.676 279.64Z" fill="#DADADA"/>
<path d="M83.4187 86.1995H58.1914V60.9722H83.4187V86.1995ZM58.7744 85.6164H82.8357V61.5552H58.7744V85.6164Z" fill="#0E3A41"/>
<path d="M71.6341 80.6379L63.2969 74.0905L64.7369 72.2598L71.4767 77.5478L86.0697 63.4912L87.6846 65.1703L71.6341 80.6379Z" fill="#0E3A41"/>
<path d="M175.256 68.26H94.9562C94.4315 68.26 94.0059 67.8344 94.0059 67.3097C94.0059 66.785 94.4315 66.3594 94.9562 66.3594H175.256C175.78 66.3594 176.206 66.785 176.206 67.3097C176.206 67.8344 175.78 68.26 175.256 68.26Z" fill="#0E3A41"/>
<path d="M175.256 72.4466H94.9562C94.4315 72.4466 94.0059 72.0209 94.0059 71.4962C94.0059 70.9715 94.4315 70.5459 94.9562 70.5459H175.256C175.78 70.5459 176.206 70.9715 176.206 71.4962C176.206 72.0209 175.78 72.4466 175.256 72.4466Z" fill="#0E3A41"/>
<path d="M175.256 76.6267H94.9562C94.4315 76.6267 94.0059 76.2011 94.0059 75.6764C94.0059 75.1517 94.4315 74.7261 94.9562 74.7261H175.256C175.78 74.7261 176.206 75.1517 176.206 75.6764C176.206 76.2011 175.78 76.6267 175.256 76.6267Z" fill="#0E3A41"/>
<path d="M175.256 80.8128H94.9562C94.4315 80.8128 94.0059 80.3872 94.0059 79.8624C94.0059 79.3377 94.4315 78.9121 94.9562 78.9121H175.256C175.78 78.9121 176.206 79.3377 176.206 79.8624C176.206 80.3872 175.78 80.8128 175.256 80.8128Z" fill="#0E3A41"/>
<path d="M83.4187 125.874H58.1914V100.647H83.4187V125.874ZM58.7744 125.291H82.8357V101.23H58.7744V125.291Z" fill="#0E3A41"/>
<path d="M71.6341 120.312L63.2969 113.764L64.7369 111.934L71.4767 117.222L86.0697 103.165L87.6846 104.844L71.6341 120.312Z" fill="#0E3A41"/>
<path d="M175.256 107.935H94.9562C94.4315 107.935 94.0059 107.509 94.0059 106.984C94.0059 106.46 94.4315 106.034 94.9562 106.034H175.256C175.78 106.034 176.206 106.46 176.206 106.984C176.206 107.509 175.78 107.935 175.256 107.935Z" fill="#0E3A41"/>
<path d="M175.256 112.121H94.9562C94.4315 112.121 94.0059 111.695 94.0059 111.171C94.0059 110.646 94.4315 110.22 94.9562 110.22H175.256C175.78 110.22 176.206 110.646 176.206 111.171C176.206 111.695 175.78 112.121 175.256 112.121Z" fill="#0E3A41"/>
<path d="M175.256 116.301H94.9562C94.4315 116.301 94.0059 115.875 94.0059 115.351C94.0059 114.826 94.4315 114.4 94.9562 114.4H175.256C175.78 114.4 176.206 114.826 176.206 115.351C176.206 115.875 175.78 116.301 175.256 116.301Z" fill="#0E3A41"/>
<path d="M175.256 120.487H94.9562C94.4315 120.487 94.0059 120.061 94.0059 119.537C94.0059 119.012 94.4315 118.586 94.9562 118.586H175.256C175.78 118.586 176.206 119.012 176.206 119.537C176.206 120.061 175.78 120.487 175.256 120.487Z" fill="#0E3A41"/>
<path d="M83.4187 165.549H58.1914V140.321H83.4187V165.549ZM58.7744 164.966H82.8357V140.904H58.7744V164.966Z" fill="#0E3A41"/>
<path d="M71.6341 159.987L63.2969 153.44L64.7369 151.609L71.4767 156.897L86.0697 142.841L87.6846 144.52L71.6341 159.987Z" fill="#0E3A41"/>
<path d="M175.256 147.61H94.9562C94.4315 147.61 94.0059 147.184 94.0059 146.659C94.0059 146.135 94.4315 145.709 94.9562 145.709H175.256C175.78 145.709 176.206 146.135 176.206 146.659C176.206 147.184 175.78 147.61 175.256 147.61Z" fill="#0E3A41"/>
<path d="M175.256 151.796H94.9562C94.4315 151.796 94.0059 151.37 94.0059 150.845C94.0059 150.321 94.4315 149.895 94.9562 149.895H175.256C175.78 149.895 176.206 150.321 176.206 150.845C176.206 151.37 175.78 151.796 175.256 151.796Z" fill="#0E3A41"/>
<path d="M175.256 155.976H94.9562C94.4315 155.976 94.0059 155.55 94.0059 155.026C94.0059 154.501 94.4315 154.075 94.9562 154.075H175.256C175.78 154.075 176.206 154.501 176.206 155.026C176.206 155.55 175.78 155.976 175.256 155.976Z" fill="#0E3A41"/>
<path d="M175.256 160.162H94.9562C94.4315 160.162 94.0059 159.736 94.0059 159.212C94.0059 158.687 94.4315 158.261 94.9562 158.261H175.256C175.78 158.261 176.206 158.687 176.206 159.212C176.206 159.736 175.78 160.162 175.256 160.162Z" fill="#0E3A41"/>
<path d="M83.4187 205.223H58.1914V179.996H83.4187V205.223ZM58.7744 204.64H82.8357V180.579H58.7744V204.64Z" fill="#0E3A41"/>
<path d="M71.6341 199.661L63.2969 193.114L64.7369 191.283L71.4767 196.571L86.0697 182.514L87.6846 184.193L71.6341 199.661Z" fill="#0E3A41"/>
<path d="M175.256 187.283H94.9562C94.4315 187.283 94.0059 186.858 94.0059 186.333C94.0059 185.808 94.4315 185.383 94.9562 185.383H175.256C175.78 185.383 176.206 185.808 176.206 186.333C176.206 186.858 175.78 187.283 175.256 187.283Z" fill="#0E3A41"/>
<path d="M175.256 191.47H94.9562C94.4315 191.47 94.0059 191.044 94.0059 190.52C94.0059 189.995 94.4315 189.569 94.9562 189.569H175.256C175.78 189.569 176.206 189.995 176.206 190.52C176.206 191.044 175.78 191.47 175.256 191.47Z" fill="#0E3A41"/>
<path d="M175.256 195.65H94.9562C94.4315 195.65 94.0059 195.225 94.0059 194.7C94.0059 194.175 94.4315 193.75 94.9562 193.75H175.256C175.78 193.75 176.206 194.175 176.206 194.7C176.206 195.225 175.78 195.65 175.256 195.65Z" fill="#0E3A41"/>
<path d="M175.256 199.836H94.9562C94.4315 199.836 94.0059 199.41 94.0059 198.885C94.0059 198.361 94.4315 197.935 94.9562 197.935H175.256C175.78 197.935 176.206 198.361 176.206 198.885C176.206 199.41 175.78 199.836 175.256 199.836Z" fill="#0E3A41"/>
<path d="M179.32 159.142C180.626 158.215 181.827 157.142 182.381 156.827C182.614 156.699 183.337 156.536 183.541 156.471C184.147 156.291 185.115 156.104 185.535 155.632L187.331 153.661C188.182 152.693 189.295 152.373 190.257 153.224C191.301 154.145 190.992 155.457 189.954 156.39L188.724 157.789C187.896 158.535 187.482 159.585 187.022 160.599C186.089 162.669 183.972 164.226 182.165 165.316C181.028 165.998 179.308 165.514 177.052 164.744C175.944 164.366 174.341 163.45 175.723 162.931C176.883 162.5 180.369 163.439 181.908 160.226C181.984 160.069 182.147 159.649 181.99 159.503C181.524 159.066 180.492 160.057 179.804 160.372C178.836 160.815 178.061 160.663 177.821 160.308C177.565 159.935 178.387 159.806 179.32 159.142Z" fill="#FAB9AF"/>
<path d="M228.387 88.6599C228.387 88.6599 225.507 123.233 215.17 134.899C208.943 141.931 193.709 153.987 190.182 156.751C189.733 157.101 189.103 157.118 188.637 156.792C188.339 156.582 188.001 156.325 187.71 156.069C187.412 155.806 187.068 155.427 186.759 155.066C186.246 154.465 186.27 153.573 186.806 152.996C190.759 148.699 206.267 131.669 208.156 127.192C210.319 122.055 214.045 91.7325 217.467 87.3423C220.889 82.9405 227.448 81.9902 228.387 88.6599Z" fill="#17616C"/>
<path d="M215.333 145.773L224.148 83.8557L247.918 80.5908L260.284 145.329L215.333 145.773Z" fill="#FAB9AF"/>
<path d="M233.71 241.72L233.686 248.699C233.681 250.122 233.873 251.533 234.258 252.897L234.864 255.048C235.36 256.815 234.036 258.564 232.2 258.558C227.448 258.541 219.321 258.552 217.228 258.558C216.884 258.558 216.552 258.325 216.522 257.987C216.347 255.952 222.23 254.582 226.667 252.868C230.043 251.562 229.862 245.493 229.448 241.948C229.291 240.607 230.41 239.47 231.751 239.581C232.859 239.674 233.716 240.607 233.71 241.72Z" fill="#FAB9AF"/>
<path d="M266.383 239.761L268.785 247.743C268.89 248.098 269.047 248.431 269.257 248.734L270.959 251.264C272.044 252.873 271.262 255.066 269.408 255.631C269.408 255.631 265.969 256.838 262.43 258.004C258.803 259.193 254.238 258.202 254.238 257.24C254.238 255.112 256.221 256.803 259.544 254.582C260.657 253.835 261.806 253.06 262.832 252.255C265.689 250.011 263.193 244.332 261.444 241.131C260.815 239.983 261.485 238.554 262.768 238.28L263.596 238.106C264.808 237.855 266.021 238.572 266.383 239.761Z" fill="#FAB9AF"/>
<path d="M241.82 146.373L215.473 144.164C215.473 144.164 212.82 163.339 219.478 198.046C222.603 214.324 229.11 245.428 229.11 245.428C230.725 246.134 232.363 246.309 234.03 245.895C234.03 245.895 234.526 232.176 234.829 217.397C235.121 203.229 235.196 188.088 236.1 183.133C237.942 173.011 241.82 146.373 241.82 146.373Z" fill="#0B4870"/>
<path d="M236.381 146.706C233.658 161.304 227.583 183.133 239.29 203.638C250.991 224.142 263.287 245.463 263.287 245.463C264.873 245.528 266.307 244.956 267.642 243.942C267.642 243.942 265.59 234.648 262.623 223.793C259.229 211.374 254.933 196.77 256.157 189.155C258.454 174.883 261.089 155.876 260.291 146.641C259.486 137.406 237.809 139.033 236.381 146.706Z" fill="#0B4870"/>
<path d="M214.424 144.198L224.148 83.8557L247.924 80.5908L260.698 144.309C260.937 145.504 260.162 146.67 258.961 146.898C254.535 147.737 243.86 149.486 231.908 149.486C222.988 149.486 217.974 147.755 215.695 146.653C214.773 146.21 214.26 145.213 214.424 144.198Z" fill="#F2F2F2"/>
<path d="M261.48 167.554C261.841 165.998 262.039 164.394 262.243 163.794C262.331 163.543 262.768 162.943 262.879 162.756C263.217 162.22 263.817 161.439 263.817 160.809L263.864 158.144C263.864 156.856 264.488 155.882 265.771 155.882C267.164 155.882 267.799 157.072 267.636 158.459V160.325C267.508 161.433 267.893 162.494 268.219 163.561C268.884 165.73 268.33 168.295 267.695 170.312C267.298 171.577 265.683 172.353 263.485 173.262C262.407 173.711 260.593 174.084 261.287 172.784C261.87 171.694 265.106 170.096 264.138 166.662C264.091 166.493 263.94 166.068 263.724 166.062C263.083 166.044 262.966 167.467 262.657 168.161C262.226 169.134 261.544 169.531 261.124 169.426C260.687 169.309 261.217 168.668 261.48 167.554Z" fill="#FAB9AF"/>
<path d="M240.496 84.3516C240.496 88.7009 241.289 93.0036 242.77 97.0906C245.673 105.084 250.034 120.196 247.44 133.512C243.714 152.687 238.916 160.436 245.131 164.908C251.346 169.374 263.263 161.922 263.607 159.433C263.951 156.949 261.287 126.417 258.272 113.188C255.252 99.9591 246.799 80.9409 246.799 80.9409L243.219 81.3257C241.668 81.489 240.496 82.7949 240.496 84.3516Z" fill="#17616C"/>
<path d="M251.667 82.2351C251.667 82.2351 272.376 110.074 272.335 125.658C272.312 135.051 268.861 154.168 268.044 158.576C267.939 159.135 267.485 159.567 266.913 159.625C266.552 159.666 266.126 159.695 265.741 159.695C265.351 159.695 264.838 159.637 264.366 159.573C263.584 159.462 263.013 158.78 263.03 157.987C263.153 152.151 263.526 129.122 261.975 124.51C260.197 119.222 242.94 94.0237 242.601 88.4617C242.257 82.9055 246.554 77.8507 251.667 82.2351Z" fill="#17616C"/>
<path d="M230.597 82.9697C230.597 82.9697 226.475 91.8783 227.909 104.681C229.349 117.485 232.678 156.471 221.029 162.36C217.339 164.225 208.914 155.97 208.914 152.903C208.914 149.836 211.724 139.587 214.389 130.264C217.053 120.942 223.472 83.9434 223.472 83.9434L230.597 82.9697Z" fill="#17616C"/>
<path d="M233.914 55.3521C239.219 55.3521 241.201 59.13 241.3 66.1146C241.341 68.7324 240.164 71.321 239.213 72.9768C238.508 74.2069 238.315 75.6645 238.718 77.0229L239.884 80.9642C240.677 84.6197 238.939 86.6311 236.374 87.3599C235.103 87.7214 233.581 87.4415 232.474 86.7244C231.156 85.8732 231.045 84.0367 231.29 82.4858L231.593 81.3606C232.001 79.8448 231.121 78.2123 229.588 77.88C225.501 76.988 224.918 72.7261 223.822 66.1146C222.679 59.2233 228.608 55.3521 233.914 55.3521Z" fill="#FAB9AF"/>
<path d="M221.559 52.2855L224.603 53.2125C225.722 53.5507 226.912 53.5623 228.037 53.2358L234.112 51.4751C237.791 51.4751 243.872 53.5507 243.102 58.862L242.426 62.6166C242.158 64.115 240.904 65.2402 239.382 65.3685C239.242 65.8874 238.77 66.2488 238.234 66.2488C237.575 66.2488 237.045 65.7183 237.045 65.0595C237.045 63.3629 235.855 61.9228 234.205 61.5497C232.176 61.0949 230.013 60.9842 227.745 61.5963C223.524 62.7332 219.07 60.1155 218.65 55.7603C218.621 55.4863 218.609 55.2064 218.609 54.9208C218.604 53.16 220.055 51.8716 221.559 52.2855Z" fill="#0B4870"/>
<path d="M238.38 66.2427C238.38 67.8635 238.98 69.1752 240.543 69.1752C242.105 69.1752 243.102 66.9481 243.102 65.3273C243.102 63.7065 242.1 63.3101 240.543 63.3101C238.98 63.3101 238.38 64.6277 238.38 66.2427Z" fill="#FAB9AF"/>
<path d="M239.022 73.3555C239.022 73.3555 235.057 78.8009 230.131 78.0663C230.131 78.0663 231.157 78.556 231.402 79.3489C231.402 79.3489 236.084 79.0049 239.022 73.3555Z" fill="#E8948B"/>
<path d="M234.415 253.445C234.415 253.445 230.73 255.072 227.296 252.542C227.296 252.542 218.819 253.9 216.388 256.407C213.957 258.914 215.717 260.156 218.772 260.103C221.821 260.051 233.61 259.928 233.61 259.928C233.61 259.928 236.636 258.08 234.415 253.445Z" fill="#0B4870"/>
<path d="M269.84 249.329C269.84 249.329 268.044 251.69 264.021 250.291C264.021 250.291 255.077 254.378 253.497 257.491C251.917 260.604 253.964 261.269 256.867 260.319C259.771 259.368 270.988 255.765 270.988 255.765C270.988 255.765 273.332 253.095 269.84 249.329Z" fill="#0B4870"/>
</svg>
