<svg width="48" height="48" viewBox="0 0 48 48" fill="none" xmlns="http://www.w3.org/2000/svg">
<rect width="48" height="48" rx="24" fill="#F5F9F9"/>
<path d="M14.4998 19.25L12.9165 20.8333V33.6667C12.9165 35.3235 14.2597 36.6667 15.9165 36.6667H19.8332C20.3855 36.6667 20.8332 36.219 20.8332 35.6667V28.1667C20.8332 27.6144 21.2809 27.1667 21.8332 27.1667H26.1665C26.7188 27.1667 27.1665 27.6144 27.1665 28.1667V35.6667C27.1665 36.219 27.6142 36.6667 28.1665 36.6667H32.0832C33.74 36.6667 35.0832 35.3235 35.0832 33.6667V20.8333L33.4998 19.25" stroke="#A2C0C4" stroke-width="2" stroke-linecap="round" stroke-linejoin="round"/>
<path d="M11.3335 22.4167L24.0002 9.75L36.6668 22.4167" stroke="#A2C0C4" stroke-width="2" stroke-linecap="round" stroke-linejoin="round"/>
</svg>
