<svg width="327" height="246" viewBox="0 0 327 246" fill="none" xmlns="http://www.w3.org/2000/svg">
<path d="M123.916 168.374C113.103 167.674 102.828 164.116 94.5586 158.206C86.2896 152.296 80.4493 144.337 77.8718 135.466C75.2943 126.594 76.1112 117.264 80.206 108.807C84.3008 100.35 91.4641 93.1981 100.673 88.3736C102.632 75.5075 110.092 63.6836 121.656 55.1146C133.22 46.5456 148.096 41.8188 163.5 41.8188C178.903 41.8188 193.779 46.5456 205.343 55.1146C216.907 63.6836 224.367 75.5075 226.326 88.3736C235.535 93.1981 242.698 100.35 246.793 108.807C250.888 117.264 251.705 126.594 249.127 135.466C246.55 144.337 240.71 152.296 232.441 158.206C224.172 164.116 213.897 167.674 203.083 168.374V168.5H123.916V168.374ZM171.416 115.167H195.166L163.5 81.8336L131.833 115.167H155.583V141.834H171.416V115.167Z" fill="#17616C"/>
<path d="M67.2727 205.5H65.8636C65.7803 205.095 65.6345 204.739 65.4261 204.432C65.2216 204.125 64.9716 203.867 64.6761 203.659C64.3845 203.447 64.0606 203.288 63.7045 203.182C63.3485 203.076 62.9773 203.023 62.5909 203.023C61.8864 203.023 61.2481 203.201 60.6761 203.557C60.108 203.913 59.6553 204.438 59.3182 205.131C58.9848 205.824 58.8182 206.674 58.8182 207.682C58.8182 208.689 58.9848 209.54 59.3182 210.233C59.6553 210.926 60.108 211.451 60.6761 211.807C61.2481 212.163 61.8864 212.341 62.5909 212.341C62.9773 212.341 63.3485 212.288 63.7045 212.182C64.0606 212.076 64.3845 211.919 64.6761 211.71C64.9716 211.498 65.2216 211.239 65.4261 210.932C65.6345 210.621 65.7803 210.265 65.8636 209.864H67.2727C67.1667 210.458 66.9735 210.991 66.6932 211.46C66.4129 211.93 66.0644 212.33 65.6477 212.659C65.2311 212.985 64.7633 213.233 64.2443 213.403C63.7292 213.574 63.178 213.659 62.5909 213.659C61.5985 213.659 60.7159 213.417 59.9432 212.932C59.1705 212.447 58.5625 211.758 58.1193 210.864C57.6761 209.97 57.4545 208.909 57.4545 207.682C57.4545 206.455 57.6761 205.394 58.1193 204.5C58.5625 203.606 59.1705 202.917 59.9432 202.432C60.7159 201.947 61.5985 201.705 62.5909 201.705C63.178 201.705 63.7292 201.79 64.2443 201.96C64.7633 202.131 65.2311 202.381 65.6477 202.71C66.0644 203.036 66.4129 203.434 66.6932 203.903C66.9735 204.369 67.1667 204.902 67.2727 205.5ZM70.7088 201.864V213.5H69.3679V201.864H70.7088ZM73.1648 213.5V204.773H74.5057V213.5H73.1648ZM73.8466 203.318C73.5852 203.318 73.3598 203.229 73.1705 203.051C72.9848 202.873 72.892 202.659 72.892 202.409C72.892 202.159 72.9848 201.945 73.1705 201.767C73.3598 201.589 73.5852 201.5 73.8466 201.5C74.108 201.5 74.3314 201.589 74.517 201.767C74.7064 201.945 74.8011 202.159 74.8011 202.409C74.8011 202.659 74.7064 202.873 74.517 203.051C74.3314 203.229 74.108 203.318 73.8466 203.318ZM80.5071 213.682C79.6889 213.682 78.9844 213.489 78.3935 213.102C77.8026 212.716 77.348 212.184 77.0298 211.506C76.7116 210.828 76.5526 210.053 76.5526 209.182C76.5526 208.295 76.7154 207.513 77.0412 206.835C77.3707 206.153 77.8291 205.621 78.4162 205.239C79.0071 204.852 79.6965 204.659 80.4844 204.659C81.098 204.659 81.651 204.773 82.1435 205C82.6359 205.227 83.0393 205.545 83.3537 205.955C83.6681 206.364 83.8632 206.841 83.9389 207.386H82.598C82.4957 206.989 82.2685 206.636 81.9162 206.33C81.5677 206.019 81.098 205.864 80.5071 205.864C79.9844 205.864 79.526 206 79.1321 206.273C78.742 206.542 78.437 206.922 78.2173 207.415C78.0014 207.903 77.8935 208.477 77.8935 209.136C77.8935 209.811 77.9995 210.398 78.2116 210.898C78.4276 211.398 78.7306 211.786 79.1207 212.062C79.5147 212.339 79.9768 212.477 80.5071 212.477C80.8556 212.477 81.1719 212.417 81.456 212.295C81.7401 212.174 81.9806 212 82.1776 211.773C82.3745 211.545 82.5147 211.273 82.598 210.955H83.9389C83.8632 211.47 83.6757 211.934 83.3764 212.347C83.081 212.756 82.6889 213.081 82.2003 213.324C81.7154 213.562 81.151 213.682 80.5071 213.682ZM87.1491 210.318L87.1264 208.659H87.3991L91.2173 204.773H92.8764L88.8082 208.886H88.6946L87.1491 210.318ZM85.8991 213.5V201.864H87.2401V213.5H85.8991ZM91.4446 213.5L88.0355 209.182L88.9901 208.25L93.1491 213.5H91.4446ZM105.284 206.727L104.08 207.068C104.004 206.867 103.892 206.672 103.744 206.483C103.6 206.29 103.403 206.131 103.153 206.006C102.903 205.881 102.583 205.818 102.193 205.818C101.659 205.818 101.214 205.941 100.858 206.188C100.506 206.43 100.33 206.739 100.33 207.114C100.33 207.447 100.451 207.71 100.693 207.903C100.936 208.097 101.314 208.258 101.83 208.386L103.125 208.705C103.905 208.894 104.487 209.184 104.869 209.574C105.252 209.96 105.443 210.458 105.443 211.068C105.443 211.568 105.299 212.015 105.011 212.409C104.727 212.803 104.33 213.114 103.818 213.341C103.307 213.568 102.712 213.682 102.034 213.682C101.144 213.682 100.407 213.489 99.8239 213.102C99.2405 212.716 98.8712 212.152 98.7159 211.409L99.9886 211.091C100.11 211.561 100.339 211.913 100.676 212.148C101.017 212.383 101.462 212.5 102.011 212.5C102.636 212.5 103.133 212.367 103.5 212.102C103.871 211.833 104.057 211.511 104.057 211.136C104.057 210.833 103.951 210.58 103.739 210.375C103.527 210.167 103.201 210.011 102.761 209.909L101.307 209.568C100.508 209.379 99.9205 209.085 99.5455 208.688C99.1742 208.286 98.9886 207.784 98.9886 207.182C98.9886 206.689 99.1269 206.254 99.4034 205.875C99.6837 205.496 100.064 205.199 100.545 204.983C101.03 204.767 101.58 204.659 102.193 204.659C103.057 204.659 103.735 204.848 104.227 205.227C104.723 205.606 105.076 206.106 105.284 206.727ZM110.03 213.705C109.477 213.705 108.975 213.6 108.524 213.392C108.073 213.18 107.715 212.875 107.45 212.477C107.185 212.076 107.053 211.591 107.053 211.023C107.053 210.523 107.151 210.117 107.348 209.807C107.545 209.492 107.808 209.246 108.138 209.068C108.467 208.89 108.831 208.758 109.229 208.67C109.63 208.58 110.034 208.508 110.439 208.455C110.969 208.386 111.399 208.335 111.729 208.301C112.062 208.263 112.304 208.201 112.456 208.114C112.611 208.027 112.689 207.875 112.689 207.659V207.614C112.689 207.053 112.536 206.617 112.229 206.307C111.926 205.996 111.465 205.841 110.848 205.841C110.208 205.841 109.706 205.981 109.342 206.261C108.979 206.542 108.723 206.841 108.575 207.159L107.303 206.705C107.53 206.174 107.833 205.761 108.212 205.466C108.594 205.167 109.011 204.958 109.462 204.841C109.916 204.72 110.363 204.659 110.803 204.659C111.083 204.659 111.405 204.693 111.768 204.761C112.136 204.826 112.49 204.96 112.831 205.165C113.176 205.369 113.462 205.678 113.689 206.091C113.916 206.504 114.03 207.057 114.03 207.75V213.5H112.689V212.318H112.621C112.53 212.508 112.378 212.71 112.166 212.926C111.954 213.142 111.672 213.326 111.32 213.477C110.967 213.629 110.537 213.705 110.03 213.705ZM110.234 212.5C110.765 212.5 111.212 212.396 111.575 212.188C111.943 211.979 112.219 211.71 112.405 211.381C112.594 211.051 112.689 210.705 112.689 210.341V209.114C112.632 209.182 112.507 209.244 112.314 209.301C112.125 209.354 111.905 209.402 111.655 209.443C111.409 209.481 111.168 209.515 110.933 209.545C110.702 209.572 110.515 209.595 110.371 209.614C110.022 209.659 109.696 209.733 109.393 209.835C109.094 209.934 108.852 210.083 108.666 210.284C108.484 210.481 108.393 210.75 108.393 211.091C108.393 211.557 108.566 211.909 108.911 212.148C109.259 212.383 109.7 212.5 110.234 212.5ZM121.977 209.932V204.773H123.318V213.5H121.977V212.023H121.886C121.682 212.466 121.364 212.843 120.932 213.153C120.5 213.46 119.955 213.614 119.295 213.614C118.75 213.614 118.265 213.494 117.841 213.256C117.417 213.013 117.083 212.65 116.841 212.165C116.598 211.676 116.477 211.061 116.477 210.318V204.773H117.818V210.227C117.818 210.864 117.996 211.371 118.352 211.75C118.712 212.129 119.17 212.318 119.727 212.318C120.061 212.318 120.4 212.233 120.744 212.062C121.093 211.892 121.384 211.631 121.619 211.278C121.858 210.926 121.977 210.477 121.977 209.932ZM130.274 213.5V204.773H131.57V206.136H131.683C131.865 205.67 132.159 205.309 132.564 205.051C132.969 204.79 133.456 204.659 134.024 204.659C134.6 204.659 135.079 204.79 135.462 205.051C135.848 205.309 136.149 205.67 136.365 206.136H136.456C136.679 205.686 137.015 205.328 137.462 205.062C137.909 204.794 138.445 204.659 139.07 204.659C139.85 204.659 140.488 204.903 140.984 205.392C141.481 205.877 141.729 206.633 141.729 207.659V213.5H140.388V207.659C140.388 207.015 140.212 206.555 139.859 206.278C139.507 206.002 139.092 205.864 138.615 205.864C138.001 205.864 137.526 206.049 137.189 206.42C136.852 206.788 136.683 207.254 136.683 207.818V213.5H135.32V207.523C135.32 207.027 135.159 206.627 134.837 206.324C134.515 206.017 134.1 205.864 133.592 205.864C133.244 205.864 132.918 205.956 132.615 206.142C132.316 206.328 132.073 206.585 131.888 206.915C131.706 207.241 131.615 207.617 131.615 208.045V213.5H130.274ZM149.68 209.932V204.773H151.021V213.5H149.68V212.023H149.589C149.385 212.466 149.067 212.843 148.635 213.153C148.203 213.46 147.658 213.614 146.999 213.614C146.453 213.614 145.968 213.494 145.544 213.256C145.12 213.013 144.786 212.65 144.544 212.165C144.302 211.676 144.18 211.061 144.18 210.318V204.773H145.521V210.227C145.521 210.864 145.699 211.371 146.055 211.75C146.415 212.129 146.874 212.318 147.43 212.318C147.764 212.318 148.103 212.233 148.447 212.062C148.796 211.892 149.088 211.631 149.322 211.278C149.561 210.926 149.68 210.477 149.68 209.932ZM157.273 204.773V205.909H152.75V204.773H157.273ZM154.068 202.682H155.409V211C155.409 211.379 155.464 211.663 155.574 211.852C155.688 212.038 155.831 212.163 156.006 212.227C156.184 212.288 156.371 212.318 156.568 212.318C156.716 212.318 156.837 212.311 156.932 212.295C157.027 212.277 157.102 212.261 157.159 212.25L157.432 213.455C157.341 213.489 157.214 213.523 157.051 213.557C156.888 213.595 156.682 213.614 156.432 213.614C156.053 213.614 155.682 213.532 155.318 213.369C154.958 213.206 154.659 212.958 154.42 212.625C154.186 212.292 154.068 211.871 154.068 211.364V202.682ZM161.858 213.705C161.305 213.705 160.803 213.6 160.352 213.392C159.902 213.18 159.544 212.875 159.278 212.477C159.013 212.076 158.881 211.591 158.881 211.023C158.881 210.523 158.979 210.117 159.176 209.807C159.373 209.492 159.636 209.246 159.966 209.068C160.295 208.89 160.659 208.758 161.057 208.67C161.458 208.58 161.862 208.508 162.267 208.455C162.797 208.386 163.227 208.335 163.557 208.301C163.89 208.263 164.133 208.201 164.284 208.114C164.439 208.027 164.517 207.875 164.517 207.659V207.614C164.517 207.053 164.364 206.617 164.057 206.307C163.754 205.996 163.294 205.841 162.676 205.841C162.036 205.841 161.534 205.981 161.17 206.261C160.807 206.542 160.551 206.841 160.403 207.159L159.131 206.705C159.358 206.174 159.661 205.761 160.04 205.466C160.422 205.167 160.839 204.958 161.29 204.841C161.744 204.72 162.191 204.659 162.631 204.659C162.911 204.659 163.233 204.693 163.597 204.761C163.964 204.826 164.318 204.96 164.659 205.165C165.004 205.369 165.29 205.678 165.517 206.091C165.744 206.504 165.858 207.057 165.858 207.75V213.5H164.517V212.318H164.449C164.358 212.508 164.206 212.71 163.994 212.926C163.782 213.142 163.5 213.326 163.148 213.477C162.795 213.629 162.366 213.705 161.858 213.705ZM162.062 212.5C162.593 212.5 163.04 212.396 163.403 212.188C163.771 211.979 164.047 211.71 164.233 211.381C164.422 211.051 164.517 210.705 164.517 210.341V209.114C164.46 209.182 164.335 209.244 164.142 209.301C163.953 209.354 163.733 209.402 163.483 209.443C163.237 209.481 162.996 209.515 162.761 209.545C162.53 209.572 162.343 209.595 162.199 209.614C161.85 209.659 161.525 209.733 161.222 209.835C160.922 209.934 160.68 210.083 160.494 210.284C160.313 210.481 160.222 210.75 160.222 211.091C160.222 211.557 160.394 211.909 160.739 212.148C161.087 212.383 161.528 212.5 162.062 212.5ZM172.101 204.773V205.909H167.578V204.773H172.101ZM168.896 202.682H170.237V211C170.237 211.379 170.292 211.663 170.402 211.852C170.516 212.038 170.66 212.163 170.834 212.227C171.012 212.288 171.199 212.318 171.396 212.318C171.544 212.318 171.665 212.311 171.76 212.295C171.855 212.277 171.93 212.261 171.987 212.25L172.26 213.455C172.169 213.489 172.042 213.523 171.879 213.557C171.716 213.595 171.51 213.614 171.26 213.614C170.881 213.614 170.51 213.532 170.146 213.369C169.786 213.206 169.487 212.958 169.249 212.625C169.014 212.292 168.896 211.871 168.896 211.364V202.682ZM168.999 217.364L169.635 214.42H171.01L170.044 217.364H168.999ZM174.118 213.5V204.773H175.459V213.5H174.118ZM174.8 203.318C174.538 203.318 174.313 203.229 174.124 203.051C173.938 202.873 173.845 202.659 173.845 202.409C173.845 202.159 173.938 201.945 174.124 201.767C174.313 201.589 174.538 201.5 174.8 201.5C175.061 201.5 175.285 201.589 175.47 201.767C175.66 201.945 175.754 202.159 175.754 202.409C175.754 202.659 175.66 202.873 175.47 203.051C175.285 203.229 175.061 203.318 174.8 203.318ZM186.301 204.773V205.909H181.597V204.773H186.301ZM183.006 213.5V203.568C183.006 203.068 183.123 202.652 183.358 202.318C183.593 201.985 183.898 201.735 184.273 201.568C184.648 201.402 185.044 201.318 185.46 201.318C185.79 201.318 186.059 201.345 186.267 201.398C186.475 201.451 186.631 201.5 186.733 201.545L186.347 202.705C186.278 202.682 186.184 202.653 186.062 202.619C185.945 202.585 185.79 202.568 185.597 202.568C185.153 202.568 184.833 202.68 184.636 202.903C184.443 203.127 184.347 203.455 184.347 203.886V213.5H183.006ZM188.18 213.5V204.773H189.521V213.5H188.18ZM188.862 203.318C188.601 203.318 188.375 203.229 188.186 203.051C188 202.873 187.908 202.659 187.908 202.409C187.908 202.159 188 201.945 188.186 201.767C188.375 201.589 188.601 201.5 188.862 201.5C189.124 201.5 189.347 201.589 189.533 201.767C189.722 201.945 189.817 202.159 189.817 202.409C189.817 202.659 189.722 202.873 189.533 203.051C189.347 203.229 189.124 203.318 188.862 203.318ZM198.159 206.727L196.955 207.068C196.879 206.867 196.767 206.672 196.619 206.483C196.475 206.29 196.278 206.131 196.028 206.006C195.778 205.881 195.458 205.818 195.068 205.818C194.534 205.818 194.089 205.941 193.733 206.188C193.381 206.43 193.205 206.739 193.205 207.114C193.205 207.447 193.326 207.71 193.568 207.903C193.811 208.097 194.189 208.258 194.705 208.386L196 208.705C196.78 208.894 197.362 209.184 197.744 209.574C198.127 209.96 198.318 210.458 198.318 211.068C198.318 211.568 198.174 212.015 197.886 212.409C197.602 212.803 197.205 213.114 196.693 213.341C196.182 213.568 195.587 213.682 194.909 213.682C194.019 213.682 193.282 213.489 192.699 213.102C192.116 212.716 191.746 212.152 191.591 211.409L192.864 211.091C192.985 211.561 193.214 211.913 193.551 212.148C193.892 212.383 194.337 212.5 194.886 212.5C195.511 212.5 196.008 212.367 196.375 212.102C196.746 211.833 196.932 211.511 196.932 211.136C196.932 210.833 196.826 210.58 196.614 210.375C196.402 210.167 196.076 210.011 195.636 209.909L194.182 209.568C193.383 209.379 192.795 209.085 192.42 208.688C192.049 208.286 191.864 207.784 191.864 207.182C191.864 206.689 192.002 206.254 192.278 205.875C192.559 205.496 192.939 205.199 193.42 204.983C193.905 204.767 194.455 204.659 195.068 204.659C195.932 204.659 196.61 204.848 197.102 205.227C197.598 205.606 197.951 206.106 198.159 206.727ZM193.693 217.364L194.33 214.42H195.705L194.739 217.364H193.693ZM200.337 213.5V204.773H201.678V213.5H200.337ZM201.018 203.318C200.757 203.318 200.532 203.229 200.342 203.051C200.157 202.873 200.064 202.659 200.064 202.409C200.064 202.159 200.157 201.945 200.342 201.767C200.532 201.589 200.757 201.5 201.018 201.5C201.28 201.5 201.503 201.589 201.689 201.767C201.878 201.945 201.973 202.159 201.973 202.409C201.973 202.659 201.878 202.873 201.689 203.051C201.503 203.229 201.28 203.318 201.018 203.318ZM207.793 213.682C206.952 213.682 206.226 213.496 205.616 213.125C205.01 212.75 204.543 212.227 204.213 211.557C203.887 210.883 203.724 210.098 203.724 209.205C203.724 208.311 203.887 207.523 204.213 206.841C204.543 206.155 205.001 205.621 205.588 205.239C206.179 204.852 206.868 204.659 207.656 204.659C208.111 204.659 208.56 204.735 209.003 204.886C209.446 205.038 209.849 205.284 210.213 205.625C210.577 205.962 210.866 206.409 211.082 206.966C211.298 207.523 211.406 208.208 211.406 209.023V209.591H204.679V208.432H210.043C210.043 207.939 209.944 207.5 209.747 207.114C209.554 206.727 209.277 206.422 208.918 206.199C208.562 205.975 208.141 205.864 207.656 205.864C207.122 205.864 206.66 205.996 206.27 206.261C205.884 206.523 205.586 206.864 205.378 207.284C205.17 207.705 205.065 208.155 205.065 208.636V209.409C205.065 210.068 205.179 210.627 205.406 211.085C205.637 211.54 205.957 211.886 206.366 212.125C206.776 212.36 207.251 212.477 207.793 212.477C208.145 212.477 208.463 212.428 208.747 212.33C209.035 212.227 209.283 212.076 209.491 211.875C209.7 211.67 209.861 211.417 209.974 211.114L211.27 211.477C211.134 211.917 210.904 212.303 210.582 212.636C210.26 212.966 209.863 213.223 209.389 213.409C208.916 213.591 208.384 213.682 207.793 213.682ZM213.446 213.5V204.773H214.741V206.091H214.832C214.991 205.659 215.279 205.309 215.696 205.04C216.113 204.771 216.582 204.636 217.105 204.636C217.204 204.636 217.327 204.638 217.474 204.642C217.622 204.646 217.734 204.652 217.81 204.659V206.023C217.764 206.011 217.66 205.994 217.497 205.972C217.338 205.945 217.17 205.932 216.991 205.932C216.567 205.932 216.188 206.021 215.855 206.199C215.526 206.373 215.264 206.616 215.071 206.926C214.882 207.233 214.787 207.583 214.787 207.977V213.5H213.446ZM222.793 213.682C221.952 213.682 221.226 213.496 220.616 213.125C220.01 212.75 219.543 212.227 219.213 211.557C218.887 210.883 218.724 210.098 218.724 209.205C218.724 208.311 218.887 207.523 219.213 206.841C219.543 206.155 220.001 205.621 220.588 205.239C221.179 204.852 221.868 204.659 222.656 204.659C223.111 204.659 223.56 204.735 224.003 204.886C224.446 205.038 224.849 205.284 225.213 205.625C225.577 205.962 225.866 206.409 226.082 206.966C226.298 207.523 226.406 208.208 226.406 209.023V209.591H219.679V208.432H225.043C225.043 207.939 224.944 207.5 224.747 207.114C224.554 206.727 224.277 206.422 223.918 206.199C223.562 205.975 223.141 205.864 222.656 205.864C222.122 205.864 221.66 205.996 221.27 206.261C220.884 206.523 220.586 206.864 220.378 207.284C220.17 207.705 220.065 208.155 220.065 208.636V209.409C220.065 210.068 220.179 210.627 220.406 211.085C220.637 211.54 220.957 211.886 221.366 212.125C221.776 212.36 222.251 212.477 222.793 212.477C223.145 212.477 223.463 212.428 223.747 212.33C224.035 212.227 224.283 212.076 224.491 211.875C224.7 211.67 224.861 211.417 224.974 211.114L226.27 211.477C226.134 211.917 225.904 212.303 225.582 212.636C225.26 212.966 224.863 213.223 224.389 213.409C223.916 213.591 223.384 213.682 222.793 213.682ZM229.787 201.864V213.5H228.446V201.864H229.787ZM235.902 213.682C235.061 213.682 234.336 213.496 233.726 213.125C233.12 212.75 232.652 212.227 232.322 211.557C231.997 210.883 231.834 210.098 231.834 209.205C231.834 208.311 231.997 207.523 232.322 206.841C232.652 206.155 233.11 205.621 233.697 205.239C234.288 204.852 234.978 204.659 235.766 204.659C236.22 204.659 236.669 204.735 237.112 204.886C237.555 205.038 237.959 205.284 238.322 205.625C238.686 205.962 238.976 206.409 239.192 206.966C239.408 207.523 239.516 208.208 239.516 209.023V209.591H232.788V208.432H238.152C238.152 207.939 238.054 207.5 237.857 207.114C237.663 206.727 237.387 206.422 237.027 206.199C236.671 205.975 236.25 205.864 235.766 205.864C235.232 205.864 234.769 205.996 234.379 206.261C233.993 206.523 233.696 206.864 233.487 207.284C233.279 207.705 233.175 208.155 233.175 208.636V209.409C233.175 210.068 233.288 210.627 233.516 211.085C233.747 211.54 234.067 211.886 234.476 212.125C234.885 212.36 235.36 212.477 235.902 212.477C236.254 212.477 236.572 212.428 236.857 212.33C237.144 212.227 237.393 212.076 237.601 211.875C237.809 211.67 237.97 211.417 238.084 211.114L239.379 211.477C239.243 211.917 239.014 212.303 238.692 212.636C238.37 212.966 237.972 213.223 237.499 213.409C237.025 213.591 236.493 213.682 235.902 213.682ZM248.624 213.705C248.071 213.705 247.569 213.6 247.118 213.392C246.667 213.18 246.309 212.875 246.044 212.477C245.779 212.076 245.646 211.591 245.646 211.023C245.646 210.523 245.745 210.117 245.942 209.807C246.139 209.492 246.402 209.246 246.732 209.068C247.061 208.89 247.425 208.758 247.822 208.67C248.224 208.58 248.627 208.508 249.033 208.455C249.563 208.386 249.993 208.335 250.322 208.301C250.656 208.263 250.898 208.201 251.05 208.114C251.205 208.027 251.283 207.875 251.283 207.659V207.614C251.283 207.053 251.129 206.617 250.822 206.307C250.519 205.996 250.059 205.841 249.442 205.841C248.802 205.841 248.3 205.981 247.936 206.261C247.572 206.542 247.317 206.841 247.169 207.159L245.896 206.705C246.124 206.174 246.427 205.761 246.805 205.466C247.188 205.167 247.605 204.958 248.055 204.841C248.51 204.72 248.957 204.659 249.396 204.659C249.677 204.659 249.999 204.693 250.362 204.761C250.73 204.826 251.084 204.96 251.425 205.165C251.769 205.369 252.055 205.678 252.283 206.091C252.51 206.504 252.624 207.057 252.624 207.75V213.5H251.283V212.318H251.214C251.124 212.508 250.972 212.71 250.76 212.926C250.548 213.142 250.266 213.326 249.913 213.477C249.561 213.629 249.131 213.705 248.624 213.705ZM248.828 212.5C249.358 212.5 249.805 212.396 250.169 212.188C250.536 211.979 250.813 211.71 250.999 211.381C251.188 211.051 251.283 210.705 251.283 210.341V209.114C251.226 209.182 251.101 209.244 250.908 209.301C250.718 209.354 250.499 209.402 250.249 209.443C250.002 209.481 249.762 209.515 249.527 209.545C249.296 209.572 249.108 209.595 248.964 209.614C248.616 209.659 248.29 209.733 247.987 209.835C247.688 209.934 247.446 210.083 247.26 210.284C247.078 210.481 246.987 210.75 246.987 211.091C246.987 211.557 247.16 211.909 247.504 212.148C247.853 212.383 248.294 212.5 248.828 212.5ZM255.071 213.5V204.773H256.412V213.5H255.071ZM255.753 203.318C255.491 203.318 255.266 203.229 255.077 203.051C254.891 202.873 254.798 202.659 254.798 202.409C254.798 202.159 254.891 201.945 255.077 201.767C255.266 201.589 255.491 201.5 255.753 201.5C256.014 201.5 256.238 201.589 256.423 201.767C256.613 201.945 256.707 202.159 256.707 202.409C256.707 202.659 256.613 202.873 256.423 203.051C256.238 203.229 256.014 203.318 255.753 203.318ZM262.413 213.682C261.595 213.682 260.891 213.489 260.3 213.102C259.709 212.716 259.254 212.184 258.936 211.506C258.618 210.828 258.459 210.053 258.459 209.182C258.459 208.295 258.622 207.513 258.947 206.835C259.277 206.153 259.735 205.621 260.322 205.239C260.913 204.852 261.603 204.659 262.391 204.659C263.004 204.659 263.557 204.773 264.05 205C264.542 205.227 264.946 205.545 265.26 205.955C265.574 206.364 265.769 206.841 265.845 207.386H264.504C264.402 206.989 264.175 206.636 263.822 206.33C263.474 206.019 263.004 205.864 262.413 205.864C261.891 205.864 261.432 206 261.038 206.273C260.648 206.542 260.343 206.922 260.124 207.415C259.908 207.903 259.8 208.477 259.8 209.136C259.8 209.811 259.906 210.398 260.118 210.898C260.334 211.398 260.637 211.786 261.027 212.062C261.421 212.339 261.883 212.477 262.413 212.477C262.762 212.477 263.078 212.417 263.362 212.295C263.646 212.174 263.887 212 264.084 211.773C264.281 211.545 264.421 211.273 264.504 210.955H265.845C265.769 211.47 265.582 211.934 265.283 212.347C264.987 212.756 264.595 213.081 264.107 213.324C263.622 213.562 263.057 213.682 262.413 213.682ZM267.805 213.5V204.773H269.146V213.5H267.805ZM268.487 203.318C268.226 203.318 268 203.229 267.811 203.051C267.625 202.873 267.533 202.659 267.533 202.409C267.533 202.159 267.625 201.945 267.811 201.767C268 201.589 268.226 201.5 268.487 201.5C268.749 201.5 268.972 201.589 269.158 201.767C269.347 201.945 269.442 202.159 269.442 202.409C269.442 202.659 269.347 202.873 269.158 203.051C268.972 203.229 268.749 203.318 268.487 203.318Z" fill="#17616C"/>
<rect x="2.5" y="2.5" width="322" height="241" rx="21.5" stroke="#17616C" stroke-width="5" stroke-dasharray="20 12"/>
</svg>
