<svg width="327" height="246" viewBox="0 0 327 246" fill="none" xmlns="http://www.w3.org/2000/svg">
<path d="M123.916 165.874C113.103 165.174 102.828 161.616 94.5585 155.706C86.2896 149.796 80.4493 141.837 77.8718 132.966C75.2943 124.094 76.1112 114.764 80.206 106.307C84.3008 97.8496 91.4641 90.6981 100.673 85.8736C102.632 73.0075 110.092 61.1836 121.656 52.6146C133.22 44.0456 148.096 39.3188 163.5 39.3188C178.903 39.3188 193.779 44.0456 205.343 52.6146C216.907 61.1836 224.367 73.0075 226.326 85.8736C235.535 90.6981 242.698 97.8496 246.793 106.307C250.888 114.764 251.705 124.094 249.127 132.966C246.55 141.837 240.71 149.796 232.441 155.706C224.172 161.616 213.897 165.174 203.083 165.874V166H123.916V165.874ZM171.416 112.667H195.166L163.5 79.3336L131.833 112.667H155.583V139.334H171.416V112.667Z" fill="#17616C"/>
<path d="M58.2614 215V200.455H63.3466C64.3598 200.455 65.1955 200.63 65.8537 200.98C66.5118 201.326 67.0019 201.792 67.3239 202.379C67.6458 202.962 67.8068 203.608 67.8068 204.318C67.8068 204.943 67.6955 205.459 67.473 205.866C67.2552 206.274 66.9664 206.596 66.6065 206.832C66.2514 207.069 65.8655 207.244 65.4489 207.358V207.5C65.8939 207.528 66.3414 207.685 66.7912 207.969C67.241 208.253 67.6174 208.66 67.9205 209.19C68.2235 209.721 68.375 210.369 68.375 211.136C68.375 211.866 68.2093 212.521 67.8778 213.104C67.5464 213.686 67.0232 214.148 66.3082 214.489C65.5933 214.83 64.6629 215 63.517 215H58.2614ZM60.0227 213.438H63.517C64.6676 213.438 65.4844 213.215 65.9673 212.77C66.455 212.32 66.6989 211.776 66.6989 211.136C66.6989 210.644 66.5734 210.189 66.3224 209.773C66.0715 209.351 65.714 209.015 65.25 208.764C64.786 208.509 64.2367 208.381 63.6023 208.381H60.0227V213.438ZM60.0227 206.847H63.2898C63.8201 206.847 64.2983 206.742 64.7244 206.534C65.1553 206.326 65.4962 206.032 65.7472 205.653C66.0028 205.275 66.1307 204.83 66.1307 204.318C66.1307 203.679 65.9081 203.137 65.4631 202.692C65.018 202.242 64.3125 202.017 63.3466 202.017H60.0227V206.847ZM71.0419 215V204.091H72.6612V205.739H72.7749C72.9737 205.199 73.3336 204.761 73.8544 204.425C74.3752 204.089 74.9624 203.92 75.6158 203.92C75.7389 203.92 75.8928 203.923 76.0774 203.928C76.2621 203.932 76.4018 203.939 76.4964 203.949V205.653C76.4396 205.639 76.3094 205.618 76.1058 205.589C75.907 205.556 75.6963 205.54 75.4737 205.54C74.9434 205.54 74.4699 205.651 74.0533 205.874C73.6413 206.091 73.3146 206.394 73.0732 206.783C72.8364 207.166 72.718 207.604 72.718 208.097V215H71.0419ZM82.5831 215.227C81.5982 215.227 80.7341 214.993 79.9908 214.524C79.2521 214.055 78.6745 213.4 78.2578 212.557C77.8459 211.714 77.6399 210.729 77.6399 209.602C77.6399 208.466 77.8459 207.474 78.2578 206.626C78.6745 205.779 79.2521 205.121 79.9908 204.652C80.7341 204.183 81.5982 203.949 82.5831 203.949C83.5679 203.949 84.4297 204.183 85.1683 204.652C85.9117 205.121 86.4893 205.779 86.9013 206.626C87.3179 207.474 87.5263 208.466 87.5263 209.602C87.5263 210.729 87.3179 211.714 86.9013 212.557C86.4893 213.4 85.9117 214.055 85.1683 214.524C84.4297 214.993 83.5679 215.227 82.5831 215.227ZM82.5831 213.722C83.3312 213.722 83.9467 213.53 84.4297 213.146C84.9126 212.763 85.2701 212.259 85.5021 211.634C85.7341 211.009 85.8501 210.331 85.8501 209.602C85.8501 208.873 85.7341 208.194 85.5021 207.564C85.2701 206.934 84.9126 206.425 84.4297 206.037C83.9467 205.649 83.3312 205.455 82.5831 205.455C81.835 205.455 81.2195 205.649 80.7365 206.037C80.2536 206.425 79.8961 206.934 79.6641 207.564C79.4321 208.194 79.3161 208.873 79.3161 209.602C79.3161 210.331 79.4321 211.009 79.6641 211.634C79.8961 212.259 80.2536 212.763 80.7365 213.146C81.2195 213.53 81.835 213.722 82.5831 213.722ZM92.1854 215L88.8615 204.091H90.6229L92.9808 212.443H93.0945L95.424 204.091H97.2138L99.5149 212.415H99.6286L101.987 204.091H103.748L100.424 215H98.7763L96.3899 206.619H96.2195L93.8331 215H92.1854ZM113.691 206.534L112.185 206.96C112.091 206.709 111.951 206.465 111.766 206.229C111.586 205.987 111.34 205.788 111.028 205.632C110.715 205.476 110.315 205.398 109.827 205.398C109.16 205.398 108.603 205.552 108.158 205.859C107.718 206.162 107.498 206.548 107.498 207.017C107.498 207.434 107.649 207.763 107.952 208.004C108.255 208.246 108.729 208.447 109.373 208.608L110.992 209.006C111.968 209.242 112.694 209.605 113.173 210.092C113.651 210.575 113.89 211.198 113.89 211.96C113.89 212.585 113.71 213.144 113.35 213.636C112.995 214.129 112.498 214.517 111.859 214.801C111.219 215.085 110.476 215.227 109.629 215.227C108.516 215.227 107.595 214.986 106.866 214.503C106.137 214.02 105.675 213.314 105.481 212.386L107.072 211.989C107.223 212.576 107.51 213.016 107.931 213.31C108.357 213.603 108.914 213.75 109.6 213.75C110.381 213.75 111.002 213.584 111.461 213.253C111.925 212.917 112.157 212.514 112.157 212.045C112.157 211.667 112.024 211.349 111.759 211.094C111.494 210.833 111.087 210.639 110.538 210.511L108.719 210.085C107.72 209.848 106.987 209.482 106.518 208.984C106.054 208.482 105.822 207.855 105.822 207.102C105.822 206.487 105.995 205.942 106.34 205.469C106.691 204.995 107.166 204.624 107.768 204.354C108.374 204.084 109.06 203.949 109.827 203.949C110.907 203.949 111.754 204.186 112.37 204.659C112.99 205.133 113.431 205.758 113.691 206.534ZM120.987 215.227C119.936 215.227 119.029 214.995 118.267 214.531C117.509 214.062 116.924 213.409 116.512 212.571C116.105 211.728 115.902 210.748 115.902 209.631C115.902 208.513 116.105 207.528 116.512 206.676C116.924 205.819 117.497 205.152 118.231 204.673C118.97 204.19 119.832 203.949 120.816 203.949C121.385 203.949 121.946 204.044 122.5 204.233C123.054 204.422 123.558 204.73 124.012 205.156C124.467 205.578 124.829 206.136 125.099 206.832C125.369 207.528 125.504 208.385 125.504 209.403V210.114H117.095V208.665H123.799C123.799 208.049 123.676 207.5 123.43 207.017C123.189 206.534 122.843 206.153 122.393 205.874C121.948 205.594 121.422 205.455 120.816 205.455C120.149 205.455 119.571 205.62 119.083 205.952C118.6 206.278 118.229 206.705 117.968 207.23C117.708 207.756 117.578 208.319 117.578 208.92V209.886C117.578 210.71 117.72 211.409 118.004 211.982C118.293 212.55 118.693 212.983 119.204 213.281C119.716 213.575 120.31 213.722 120.987 213.722C121.427 213.722 121.825 213.66 122.18 213.537C122.54 213.409 122.85 213.22 123.11 212.969C123.371 212.713 123.572 212.396 123.714 212.017L125.333 212.472C125.163 213.021 124.877 213.504 124.474 213.92C124.072 214.332 123.574 214.654 122.983 214.886C122.391 215.114 121.725 215.227 120.987 215.227ZM133.906 215V200.455H142.627V202.017H135.667V206.932H141.974V208.494H135.667V215H133.906ZM145.417 215V204.091H147.093V215H145.417ZM146.269 202.273C145.942 202.273 145.661 202.161 145.424 201.939C145.192 201.716 145.076 201.449 145.076 201.136C145.076 200.824 145.192 200.556 145.424 200.334C145.661 200.111 145.942 200 146.269 200C146.596 200 146.875 200.111 147.107 200.334C147.344 200.556 147.462 200.824 147.462 201.136C147.462 201.449 147.344 201.716 147.107 201.939C146.875 202.161 146.596 202.273 146.269 202.273ZM151.839 200.455V215H150.163V200.455H151.839ZM159.483 215.227C158.432 215.227 157.525 214.995 156.763 214.531C156.005 214.062 155.42 213.409 155.009 212.571C154.601 211.728 154.398 210.748 154.398 209.631C154.398 208.513 154.601 207.528 155.009 206.676C155.42 205.819 155.993 205.152 156.727 204.673C157.466 204.19 158.328 203.949 159.312 203.949C159.881 203.949 160.442 204.044 160.996 204.233C161.55 204.422 162.054 204.73 162.509 205.156C162.963 205.578 163.325 206.136 163.595 206.832C163.865 207.528 164 208.385 164 209.403V210.114H155.591V208.665H162.295C162.295 208.049 162.172 207.5 161.926 207.017C161.685 206.534 161.339 206.153 160.889 205.874C160.444 205.594 159.919 205.455 159.312 205.455C158.645 205.455 158.067 205.62 157.58 205.952C157.097 206.278 156.725 206.705 156.464 207.23C156.204 207.756 156.074 208.319 156.074 208.92V209.886C156.074 210.71 156.216 211.409 156.5 211.982C156.789 212.55 157.189 212.983 157.7 213.281C158.212 213.575 158.806 213.722 159.483 213.722C159.923 213.722 160.321 213.66 160.676 213.537C161.036 213.409 161.346 213.22 161.607 212.969C161.867 212.713 162.068 212.396 162.21 212.017L163.83 212.472C163.659 213.021 163.373 213.504 162.97 213.92C162.568 214.332 162.071 214.654 161.479 214.886C160.887 215.114 160.222 215.227 159.483 215.227ZM174.277 206.534L172.771 206.96C172.677 206.709 172.537 206.465 172.352 206.229C172.172 205.987 171.926 205.788 171.614 205.632C171.301 205.476 170.901 205.398 170.413 205.398C169.746 205.398 169.189 205.552 168.744 205.859C168.304 206.162 168.084 206.548 168.084 207.017C168.084 207.434 168.235 207.763 168.538 208.004C168.841 208.246 169.315 208.447 169.959 208.608L171.578 209.006C172.554 209.242 173.28 209.605 173.759 210.092C174.237 210.575 174.476 211.198 174.476 211.96C174.476 212.585 174.296 213.144 173.936 213.636C173.581 214.129 173.084 214.517 172.445 214.801C171.805 215.085 171.062 215.227 170.214 215.227C169.102 215.227 168.181 214.986 167.452 214.503C166.723 214.02 166.261 213.314 166.067 212.386L167.658 211.989C167.809 212.576 168.096 213.016 168.517 213.31C168.943 213.603 169.5 213.75 170.186 213.75C170.967 213.75 171.588 213.584 172.047 213.253C172.511 212.917 172.743 212.514 172.743 212.045C172.743 211.667 172.61 211.349 172.345 211.094C172.08 210.833 171.673 210.639 171.124 210.511L169.305 210.085C168.306 209.848 167.572 209.482 167.104 208.984C166.64 208.482 166.408 207.855 166.408 207.102C166.408 206.487 166.58 205.942 166.926 205.469C167.277 204.995 167.752 204.624 168.354 204.354C168.96 204.084 169.646 203.949 170.413 203.949C171.493 203.949 172.34 204.186 172.956 204.659C173.576 205.133 174.017 205.758 174.277 206.534ZM187.368 204.091V205.511H181.715V204.091H187.368ZM183.363 201.477H185.039V211.875C185.039 212.348 185.107 212.704 185.245 212.94C185.387 213.172 185.567 213.329 185.784 213.409C186.007 213.485 186.241 213.523 186.488 213.523C186.672 213.523 186.824 213.513 186.942 213.494C187.06 213.471 187.155 213.452 187.226 213.438L187.567 214.943C187.453 214.986 187.295 215.028 187.091 215.071C186.888 215.118 186.63 215.142 186.317 215.142C185.844 215.142 185.38 215.04 184.925 214.837C184.475 214.633 184.101 214.323 183.803 213.906C183.509 213.49 183.363 212.964 183.363 212.33V201.477ZM194.204 215.227C193.219 215.227 192.355 214.993 191.612 214.524C190.873 214.055 190.296 213.4 189.879 212.557C189.467 211.714 189.261 210.729 189.261 209.602C189.261 208.466 189.467 207.474 189.879 206.626C190.296 205.779 190.873 205.121 191.612 204.652C192.355 204.183 193.219 203.949 194.204 203.949C195.189 203.949 196.051 204.183 196.789 204.652C197.533 205.121 198.11 205.779 198.522 206.626C198.939 207.474 199.147 208.466 199.147 209.602C199.147 210.729 198.939 211.714 198.522 212.557C198.11 213.4 197.533 214.055 196.789 214.524C196.051 214.993 195.189 215.227 194.204 215.227ZM194.204 213.722C194.952 213.722 195.568 213.53 196.051 213.146C196.534 212.763 196.891 212.259 197.123 211.634C197.355 211.009 197.471 210.331 197.471 209.602C197.471 208.873 197.355 208.194 197.123 207.564C196.891 206.934 196.534 206.425 196.051 206.037C195.568 205.649 194.952 205.455 194.204 205.455C193.456 205.455 192.841 205.649 192.358 206.037C191.875 206.425 191.517 206.934 191.285 207.564C191.053 208.194 190.937 208.873 190.937 209.602C190.937 210.331 191.053 211.009 191.285 211.634C191.517 212.259 191.875 212.763 192.358 213.146C192.841 213.53 193.456 213.722 194.204 213.722ZM214.206 210.54V204.091H215.882V215H214.206V213.153H214.092C213.837 213.707 213.439 214.179 212.899 214.567C212.359 214.95 211.678 215.142 210.854 215.142C210.172 215.142 209.566 214.993 209.036 214.695C208.505 214.392 208.089 213.937 207.786 213.331C207.482 212.72 207.331 211.951 207.331 211.023V204.091H209.007V210.909C209.007 211.705 209.23 212.339 209.675 212.812C210.125 213.286 210.697 213.523 211.393 213.523C211.81 213.523 212.234 213.416 212.665 213.203C213.1 212.99 213.465 212.663 213.759 212.223C214.057 211.783 214.206 211.222 214.206 210.54ZM218.952 219.091V204.091H220.571V205.824H220.77C220.893 205.634 221.064 205.393 221.282 205.099C221.504 204.801 221.821 204.536 222.233 204.304C222.65 204.067 223.213 203.949 223.924 203.949C224.842 203.949 225.652 204.179 226.353 204.638C227.053 205.097 227.6 205.748 227.993 206.591C228.386 207.434 228.583 208.428 228.583 209.574C228.583 210.729 228.386 211.731 227.993 212.578C227.6 213.421 227.056 214.074 226.36 214.538C225.664 214.998 224.861 215.227 223.952 215.227C223.251 215.227 222.69 215.111 222.269 214.879C221.847 214.643 221.523 214.375 221.296 214.077C221.069 213.774 220.893 213.523 220.77 213.324H220.628V219.091H218.952ZM220.6 209.545C220.6 210.369 220.721 211.096 220.962 211.726C221.203 212.351 221.556 212.841 222.02 213.196C222.484 213.546 223.052 213.722 223.725 213.722C224.426 213.722 225.01 213.537 225.479 213.168C225.953 212.794 226.308 212.292 226.544 211.662C226.786 211.027 226.907 210.322 226.907 209.545C226.907 208.778 226.788 208.087 226.551 207.472C226.319 206.851 225.967 206.361 225.493 206.001C225.025 205.637 224.435 205.455 223.725 205.455C223.043 205.455 222.47 205.627 222.006 205.973C221.542 206.314 221.192 206.792 220.955 207.408C220.718 208.018 220.6 208.731 220.6 209.545ZM232.816 200.455V215H231.14V200.455H232.816ZM240.317 215.227C239.333 215.227 238.469 214.993 237.725 214.524C236.987 214.055 236.409 213.4 235.992 212.557C235.58 211.714 235.374 210.729 235.374 209.602C235.374 208.466 235.58 207.474 235.992 206.626C236.409 205.779 236.987 205.121 237.725 204.652C238.469 204.183 239.333 203.949 240.317 203.949C241.302 203.949 242.164 204.183 242.903 204.652C243.646 205.121 244.224 205.779 244.636 206.626C245.052 207.474 245.261 208.466 245.261 209.602C245.261 210.729 245.052 211.714 244.636 212.557C244.224 213.4 243.646 214.055 242.903 214.524C242.164 214.993 241.302 215.227 240.317 215.227ZM240.317 213.722C241.066 213.722 241.681 213.53 242.164 213.146C242.647 212.763 243.004 212.259 243.237 211.634C243.469 211.009 243.585 210.331 243.585 209.602C243.585 208.873 243.469 208.194 243.237 207.564C243.004 206.934 242.647 206.425 242.164 206.037C241.681 205.649 241.066 205.455 240.317 205.455C239.569 205.455 238.954 205.649 238.471 206.037C237.988 206.425 237.63 206.934 237.398 207.564C237.166 208.194 237.05 208.873 237.05 209.602C237.05 210.331 237.166 211.009 237.398 211.634C237.63 212.259 237.988 212.763 238.471 213.146C238.954 213.53 239.569 213.722 240.317 213.722ZM251.029 215.256C250.338 215.256 249.711 215.125 249.147 214.865C248.584 214.6 248.136 214.219 247.805 213.722C247.474 213.22 247.308 212.614 247.308 211.903C247.308 211.278 247.431 210.772 247.677 210.384C247.923 209.991 248.252 209.683 248.664 209.46C249.076 209.238 249.531 209.072 250.028 208.963C250.53 208.849 251.034 208.759 251.541 208.693C252.204 208.608 252.741 208.544 253.153 208.501C253.57 208.454 253.873 208.376 254.062 208.267C254.256 208.158 254.353 207.969 254.353 207.699V207.642C254.353 206.941 254.162 206.397 253.778 206.009C253.399 205.62 252.824 205.426 252.052 205.426C251.252 205.426 250.625 205.601 250.17 205.952C249.716 206.302 249.396 206.676 249.211 207.074L247.62 206.506C247.904 205.843 248.283 205.327 248.757 204.957C249.235 204.583 249.756 204.323 250.319 204.176C250.887 204.025 251.446 203.949 251.995 203.949C252.346 203.949 252.748 203.991 253.203 204.077C253.662 204.157 254.105 204.325 254.531 204.581C254.962 204.837 255.319 205.223 255.603 205.739C255.887 206.255 256.029 206.946 256.029 207.812V215H254.353V213.523H254.268C254.154 213.759 253.965 214.013 253.7 214.283C253.435 214.553 253.082 214.782 252.642 214.972C252.201 215.161 251.664 215.256 251.029 215.256ZM251.285 213.75C251.948 213.75 252.507 213.62 252.961 213.359C253.421 213.099 253.766 212.763 253.998 212.351C254.235 211.939 254.353 211.506 254.353 211.051V209.517C254.282 209.602 254.126 209.68 253.885 209.751C253.648 209.818 253.373 209.877 253.061 209.929C252.753 209.976 252.452 210.019 252.159 210.057C251.87 210.09 251.636 210.118 251.456 210.142C251.02 210.199 250.613 210.291 250.234 210.419C249.86 210.542 249.557 210.729 249.325 210.98C249.098 211.226 248.984 211.562 248.984 211.989C248.984 212.571 249.199 213.011 249.63 213.31C250.066 213.603 250.618 213.75 251.285 213.75ZM263.208 215.227C262.299 215.227 261.496 214.998 260.8 214.538C260.104 214.074 259.56 213.421 259.167 212.578C258.774 211.731 258.577 210.729 258.577 209.574C258.577 208.428 258.774 207.434 259.167 206.591C259.56 205.748 260.107 205.097 260.808 204.638C261.508 204.179 262.318 203.949 263.237 203.949C263.947 203.949 264.508 204.067 264.92 204.304C265.336 204.536 265.654 204.801 265.871 205.099C266.094 205.393 266.267 205.634 266.39 205.824H266.532V200.455H268.208V215H266.589V213.324H266.39C266.267 213.523 266.092 213.774 265.864 214.077C265.637 214.375 265.313 214.643 264.891 214.879C264.47 215.111 263.909 215.227 263.208 215.227ZM263.435 213.722C264.108 213.722 264.676 213.546 265.14 213.196C265.604 212.841 265.957 212.351 266.198 211.726C266.44 211.096 266.56 210.369 266.56 209.545C266.56 208.731 266.442 208.018 266.205 207.408C265.969 206.792 265.618 206.314 265.154 205.973C264.69 205.627 264.117 205.455 263.435 205.455C262.725 205.455 262.133 205.637 261.66 206.001C261.191 206.361 260.838 206.851 260.602 207.472C260.37 208.087 260.254 208.778 260.254 209.545C260.254 210.322 260.372 211.027 260.609 211.662C260.85 212.292 261.205 212.794 261.674 213.168C262.147 213.537 262.735 213.722 263.435 213.722Z" fill="black"/>
<rect x="2.5" y="2.5" width="322" height="241" rx="21.5" stroke="#17616C" stroke-width="5" stroke-dasharray="20 12"/>
</svg>
