<svg width="49" height="49" viewBox="0 0 49 49" fill="none" xmlns="http://www.w3.org/2000/svg">
<path d="M12.4974 10.8711C13.602 10.8711 14.4974 9.97566 14.4974 8.87109C14.4974 7.76652 13.602 6.87109 12.4974 6.87109C11.7571 6.87109 11.1108 7.27329 10.765 7.87109H10.4974C8.84058 7.87109 7.49743 9.21424 7.49743 10.8711V19.8711C6.94517 19.8711 6.49274 20.3198 6.54286 20.8698C6.77535 23.421 7.89311 25.8231 9.71929 27.6493C11.0584 28.9884 12.7072 29.9466 14.4974 30.4541V32.8711C14.4974 34.1775 15.3324 35.2888 16.4978 35.7005C16.5404 39.668 19.7699 42.8711 23.7474 42.8711C27.7515 42.8711 30.9974 39.6252 30.9974 35.6211V31.6211C30.9974 29.55 32.6763 27.8711 34.7474 27.8711C36.8185 27.8711 38.4974 29.55 38.4974 31.6211V34.0418C37.3322 34.4536 36.4974 35.5649 36.4974 36.8711C36.4974 38.528 37.8405 39.8711 39.4974 39.8711C41.1543 39.8711 42.4974 38.528 42.4974 36.8711C42.4974 35.5649 41.6626 34.4536 40.4974 34.0418V31.6211C40.4974 28.4455 37.923 25.8711 34.7474 25.8711C31.5718 25.8711 28.9974 28.4455 28.9974 31.6211V35.6211C28.9974 38.5206 26.6469 40.8711 23.7474 40.8711C20.8743 40.8711 18.5403 38.5632 18.498 35.7002C19.6629 35.2882 20.4974 34.1771 20.4974 32.8711V30.4541C22.2876 29.9466 23.9365 28.9884 25.2756 27.6493C27.1018 25.8231 28.2195 23.421 28.452 20.8698C28.5022 20.3198 28.0497 19.8711 27.4974 19.8711V10.8711C27.4974 9.21424 26.1543 7.87109 24.4974 7.87109H24.2298C23.884 7.27329 23.2377 6.87109 22.4974 6.87109C21.3928 6.87109 20.4974 7.76652 20.4974 8.87109C20.4974 9.97566 21.3928 10.8711 22.4974 10.8711C23.2377 10.8711 23.884 10.4689 24.2298 9.87109H24.4974C25.0497 9.87109 25.4974 10.3188 25.4974 10.8711V19.8711H25.7069C25.1546 19.8711 24.714 20.321 24.6377 20.868C24.4222 22.4117 23.7101 23.8541 22.5953 24.969C21.2432 26.321 19.4095 27.0806 17.4974 27.0806C15.5854 27.0806 13.7516 26.321 12.3996 24.969C11.2847 23.8541 10.5727 22.4117 10.3572 20.868C10.2809 20.321 9.84029 19.8711 9.288 19.8711H9.49743V10.8711C9.49743 10.3188 9.94515 9.87109 10.4974 9.87109H10.765C11.1108 10.4689 11.7571 10.8711 12.4974 10.8711Z" fill="#17616C"/>
</svg>
