<svg width="18" height="18" viewBox="0 0 18 18" fill="none" xmlns="http://www.w3.org/2000/svg">
<path fill-rule="evenodd" clip-rule="evenodd" d="M7.57897 1.89474C4.43966 1.89474 1.89474 4.43966 1.89474 7.57897C1.89474 10.7183 4.43966 13.2632 7.57897 13.2632C10.7183 13.2632 13.2632 10.7183 13.2632 7.57897C13.2632 4.43966 10.7183 1.89474 7.57897 1.89474ZM0 7.57897C0 3.3932 3.3932 0 7.57897 0C11.7647 0 15.1579 3.3932 15.1579 7.57897C15.1579 11.7647 11.7647 15.1579 7.57897 15.1579C3.3932 15.1579 0 11.7647 0 7.57897Z" fill="#17616C"/>
<path fill-rule="evenodd" clip-rule="evenodd" d="M11.6459 11.6459C12.0159 11.276 12.6157 11.276 12.9857 11.6459L17.7225 16.3828C18.0925 16.7527 18.0925 17.3526 17.7225 17.7225C17.3526 18.0925 16.7527 18.0925 16.3828 17.7225L11.6459 12.9857C11.276 12.6157 11.276 12.0159 11.6459 11.6459Z" fill="#17616C"/>
</svg>
