<svg width="24" height="24" viewBox="0 0 24 24" fill="none" xmlns="http://www.w3.org/2000/svg">
<path d="M6 11.5V20.5C6 20.7761 6.22386 21 6.5 21C6.77614 21 7 20.7761 7 20.5V11.5C7 11.2239 6.77614 11 6.5 11C6.22386 11 6 11.2239 6 11.5Z" stroke="#A2C0C4" stroke-width="2" stroke-linecap="round" stroke-linejoin="round"/>
<path d="M17 11.5V20.5C17 20.7761 17.2239 21 17.5 21C17.7761 21 18 20.7761 18 20.5V11.5C18 11.2239 17.7761 11 17.5 11C17.2239 11 17 11.2239 17 11.5Z" stroke="#A2C0C4" stroke-width="2" stroke-linecap="round" stroke-linejoin="round"/>
<path d="M9.57849 7.6279L9.31009 5.4807C9.13294 4.0635 7.92822 3 6.5 3C5.07178 3 3.86706 4.0635 3.68991 5.4807L3.42151 7.6279C3.19769 9.41845 4.59385 11 6.39835 11H6.60165C8.40615 11 9.80231 9.41845 9.57849 7.6279Z" stroke="#A2C0C4" stroke-width="2" stroke-linecap="round"/>
<path d="M20 3L20.5785 7.6279C20.8023 9.41845 19.4061 11 17.6017 11H17.5M15 3L14.4215 7.6279C14.1977 9.41845 15.5939 11 17.3983 11H17.5M17.5 3V11" stroke="#A2C0C4" stroke-width="2" stroke-linecap="round"/>
</svg>
