<svg width="24" height="24" viewBox="0 0 24 24" fill="none" xmlns="http://www.w3.org/2000/svg">
<path d="M4 10V17.75C4 18.9926 5.00736 20 6.25 20C6.66421 20 7 19.6642 7 19.25V15C7 14.4477 7.44772 14 8 14H10C10.5523 14 11 14.4477 11 15V19C11 19.5523 11.4477 20 12 20H17C18.6569 20 20 18.6569 20 17V10" stroke="#A2C0C4" stroke-width="2" stroke-linecap="round" stroke-linejoin="round"/>
<path d="M14 15C14 14.4477 14.4477 14 15 14H16C16.5523 14 17 14.4477 17 15V16C17 16.5523 16.5523 17 16 17H15C14.4477 17 14 16.5523 14 16V15Z" stroke="#A2C0C4" stroke-width="2" stroke-linejoin="round"/>
<path d="M3.54437 5.36754C3.8166 4.55086 4.58088 4 5.44174 4H8.00022L7.39317 7.64231C7.16642 9.00283 5.98929 10 4.61001 10C3.3261 10 2.4195 8.74216 2.82551 7.52413L3.54437 5.36754Z" stroke="#A2C0C4" stroke-width="2" stroke-linejoin="round"/>
<path d="M12 4H16L16.555 7.32992C16.7879 8.72764 15.7101 10 14.2931 10C13.0267 10 12 8.97335 12 7.70691V4Z" stroke="#A2C0C4" stroke-width="2" stroke-linejoin="round"/>
<path d="M7.99984 4H11.9998V7.70691C11.9998 8.97335 10.9732 10 9.70675 10C8.28975 10 7.2119 8.72764 7.44485 7.32992L7.99984 4Z" stroke="#A2C0C4" stroke-width="2" stroke-linejoin="round"/>
<path d="M16 4H18.5585C19.4193 4 20.1836 4.55086 20.4558 5.36754L21.1747 7.52413C21.5807 8.74216 20.6741 10 19.3902 10C18.0109 10 16.8338 9.00283 16.6071 7.64231L16 4Z" stroke="#A2C0C4" stroke-width="2" stroke-linejoin="round"/>
</svg>
