<svg width="24" height="24" viewBox="0 0 24 24" fill="none" xmlns="http://www.w3.org/2000/svg">
<path d="M15 16H16M8 16H9" stroke="#EB8676" stroke-width="3" stroke-linecap="round" stroke-linejoin="round"/>
<path d="M11.5 1L9.11325 6H14.8868L12.5 1H11.5ZM12.5 5.5C12.5 5.22386 12.2761 5 12 5C11.7239 5 11.5 5.22386 11.5 5.5H12.5Z" fill="#EB8676"/>
<path d="M5 12H19M5 13H19" stroke="#EB8676" stroke-width="2" stroke-linecap="round" stroke-linejoin="round"/>
<path d="M5 8C5 6.34315 6.34315 5 8 5H12H16C17.6569 5 19 6.34315 19 8V19H5V8Z" stroke="#EB8676" stroke-width="2" stroke-linecap="round" stroke-linejoin="round"/>
<path d="M5 19V21" stroke="#EB8676" stroke-width="2" stroke-linecap="round" stroke-linejoin="round"/>
<path d="M19 19V21" stroke="#EB8676" stroke-width="2" stroke-linecap="round" stroke-linejoin="round"/>
</svg>
