<svg width="48" height="48" viewBox="0 0 48 48" fill="none" xmlns="http://www.w3.org/2000/svg">
<circle cx="24" cy="24" r="24" fill="white"/>
<path d="M31.3173 15.2373C30.7399 15.1306 30.3526 15.0673 29.5192 15.0673C28.8621 15.0673 28.32 15.1603 27.8479 15.3681C27.3726 15.5772 27.0034 15.8872 26.6715 16.2673C25.9511 17.0922 25.6538 18.4325 25.6538 20.1538V21.7115V22.2115H26.1538H31.1164L29.9414 25.625H26.1538V26.1154H25.6538V26.125V26.625V36.5H21.6538V26.1154V25.6154H21.1538H17.5V22.2019H21.1538H21.6538V21.7019V20.0962C21.6538 17.1727 22.2663 15.0352 23.4409 13.6337C24.6012 12.2491 26.381 11.5 28.9135 11.5C30.0757 11.5 30.5368 11.633 31.0983 11.7949C31.1692 11.8154 31.2416 11.8363 31.3173 11.8574V15.2373Z" stroke="#A2C0C4"/>
</svg>
