<svg width="48" height="48" viewBox="0 0 48 48" fill="none" xmlns="http://www.w3.org/2000/svg">
<rect width="48" height="48" rx="24" fill="#F5F9F9"/>
<path d="M31.8633 26.381H25V22.619H36.5V24.5C36.5 31.1164 31.1164 36.5 24.5 36.5C17.8836 36.5 12.5 31.1164 12.5 24.5C12.5 17.8836 17.8836 12.5 24.5 12.5C27.006 12.5 29.3835 13.2549 31.4121 14.6892L29.1145 17.6739C27.7519 16.7488 26.1654 16.2619 24.5 16.2619C19.9571 16.2619 16.2619 19.9571 16.2619 24.5C16.2619 29.0429 19.9571 32.7381 24.5 32.7381C28.1601 32.7381 31.2678 30.3404 32.339 27.0351L32.551 26.381H31.8633Z" stroke="#A2C0C4"/>
</svg>
