<svg width="48" height="48" viewBox="0 0 48 48" fill="none" xmlns="http://www.w3.org/2000/svg">
<circle cx="24" cy="24" r="24" fill="white"/>
<path d="M11.9419 36.3745V20.0503H16.3745V36.3745H11.9419Z" fill="white" stroke="#A2C0C4"/>
<path d="M31.5004 19.6711L31.5004 19.6711L31.5086 19.672C33.1418 19.8489 34.3708 20.4659 35.1963 21.4478C36.0253 22.4339 36.495 23.845 36.495 25.6965V36.4998H32.0624V26.9232V26.9232V26.9232V26.9232V26.9232V26.9232V26.9232V26.9232V26.9232V26.9232V26.9232V26.9231V26.9231V26.9231V26.9231V26.9231V26.9231V26.9231V26.9231V26.9231V26.9231V26.9231V26.923V26.923V26.923V26.923V26.923V26.923V26.923V26.923V26.923V26.9229V26.9229V26.9229V26.9229V26.9229V26.9229V26.9229V26.9228V26.9228V26.9228V26.9228V26.9228V26.9228V26.9228V26.9227V26.9227V26.9227V26.9227V26.9227V26.9227V26.9226V26.9226V26.9226V26.9226V26.9226V26.9225V26.9225V26.9225V26.9225V26.9225V26.9224V26.9224V26.9224V26.9224V26.9224V26.9223V26.9223V26.9223V26.9223V26.9222V26.9222V26.9222V26.9222V26.9222V26.9221V26.9221V26.9221V26.9221V26.922V26.922V26.922V26.922V26.9219V26.9219V26.9219V26.9219V26.9218V26.9218V26.9218V26.9218V26.9217V26.9217V26.9217V26.9216V26.9216V26.9216V26.9216V26.9215V26.9215V26.9215V26.9214V26.9214V26.9214V26.9213V26.9213V26.9213V26.9213V26.9212V26.9212V26.9212V26.9211V26.9211V26.9211V26.921V26.921V26.921V26.9209V26.9209V26.9209V26.9208V26.9208V26.9208V26.9207V26.9207V26.9207V26.9206V26.9206V26.9206V26.9205V26.9205V26.9205V26.9204V26.9204V26.9203V26.9203V26.9203V26.9202V26.9202V26.9202V26.9201V26.9201V26.92V26.92V26.92V26.9199V26.9199V26.9198V26.9198V26.9198V26.9197V26.9197V26.9196V26.9196V26.9196V26.9195V26.9195V26.9194V26.9194V26.9194V26.9193V26.9193V26.9192V26.9192V26.9192V26.9191V26.9191V26.919V26.919V26.9189V26.9189V26.9188V26.9188V26.9188V26.9187V26.9187V26.9186V26.9186V26.9185V26.9185V26.9184V26.9184V26.9184V26.9183V26.9183V26.9182V26.9182V26.9181V26.9181V26.918V26.918V26.9179V26.9179V26.9178V26.9178V26.9177V26.9177V26.9177V26.9176V26.9176V26.9175V26.9175V26.9174V26.9174V26.9173V26.9173V26.9172V26.9172V26.9171V26.9171V26.917V26.917V26.9169V26.9169V26.9168V26.9168V26.9167V26.9167V26.9166V26.9165V26.9165V26.9164V26.9164V26.9163V26.9163V26.9162V26.9162V26.9161V26.9161V26.916V26.916V26.9159V26.9159V26.9158V26.9158V26.9157V26.9156V26.9156V26.9155V26.9155V26.9154V26.9154V26.9153V26.9153V26.9152V26.9151V26.9151V26.915V26.915V26.9149V26.9149V26.9148V26.9148V26.9147V26.9146V26.9146V26.9145V26.9145V26.9144V26.9144V26.9143V26.9142V26.9142V26.9141V26.9141V26.914V26.9139V26.9139V26.9138V26.9138V26.9137V26.9137V26.9136V26.9135V26.9135V26.9134V26.9134V26.9133V26.9132V26.9132V26.9131V26.9131V26.913V26.9129V26.9129V26.9128V26.9128V26.9127V26.9126V26.9126V26.9125V26.9124V26.9124V26.9123V26.9123V26.9122V26.9121V26.9121V26.912V26.912V26.9119V26.9118V26.9118V26.9117V26.9116V26.9116V26.9115V26.9114V26.9114V26.9113V26.9113V26.9112V26.9111V26.9111V26.911V26.9109V26.9109V26.9108V26.9107V26.9107V26.9106V26.9105V26.9105V26.9104V26.9104V26.9103V26.9102V26.9102V26.9101V26.91V26.91V26.9099V26.9098V26.9098V26.9097V26.9096V26.9096V26.9095V26.9094V26.9094V26.9093V26.9092V26.9092V26.9091V26.909V26.909V26.9089V26.9088V26.9088V26.9087V26.9086V26.9086V26.9085V26.9084V26.9084V26.9083V26.9082V26.9082V26.9081V26.908V26.908V26.9079V26.9078V26.9077V26.9077V26.9076V26.9075V26.9075V26.9074V26.9073V26.9073V26.9072V26.9071V26.9071V26.907V26.9069V26.9069V26.9068V26.9067V26.9066V26.9066V26.9065V26.9064V26.9064V26.9063V26.9062V26.9062V26.9061V26.906V26.9059V26.9059V26.9058V26.9057V26.9057V26.9056V26.9055V26.9055V26.9054V26.9053V26.9052V26.9052V26.9051V26.905V26.905V26.9049V26.9048V26.9047V26.9047V26.9046V26.9045V26.9045V26.9044V26.9043V26.9042V26.9042V26.9041V26.904V26.904V26.9039V26.9038V26.9037V26.9037V26.9036V26.9035V26.9035V26.9034V26.9033V26.9032V26.9032V26.9031V26.903V26.903V26.9029V26.9028V26.9027V26.9027V26.9026V26.9025V26.9025V26.9024V26.9023V26.9022V26.9022V26.9021V26.902V26.9019V26.9019V26.9018V26.9017V26.9017V26.9016V26.9015V26.9014V26.9014V26.9013V26.9012V26.9011V26.9011V26.901V26.9009V26.9009V26.9008V26.9007V26.9006V26.9006V26.9005V26.9004V26.9003V26.9003V26.9002V26.9001V26.9V26.9V26.8999V26.8998V26.8998V26.8997V26.8996V26.8995V26.8995V26.8994V26.8993V26.8992V26.8992V26.8991V26.899V26.8989V26.8989V26.8988V26.8987V26.8987V26.8986V26.8985V26.8984V26.8984V26.8983V26.8982C32.0624 26.7447 32.0459 25.9011 31.5936 25.0798C31.3633 24.6616 31.0168 24.2434 30.5006 23.9318C29.9837 23.6198 29.3245 23.4316 28.4956 23.4316C27.3273 23.4316 26.244 23.9583 25.6427 25.0406L25.6427 25.0406L25.641 25.0437C25.0528 26.1201 25.0655 27.3518 25.0763 28.3919C25.0777 28.5276 25.0791 28.66 25.0791 28.7884V28.7939V28.7995V28.8051V28.8107V28.8162V28.8218V28.8274V28.8329V28.8385V28.8441V28.8497V28.8552V28.8608V28.8664V28.872V28.8775V28.8831V28.8887V28.8943V28.8998V28.9054V28.911V28.9166V28.9221V28.9277V28.9333V28.9389V28.9444V28.95V28.9556V28.9612V28.9667V28.9723V28.9779V28.9835V28.989V28.9946V29.0002V29.0057V29.0113V29.0169V29.0225V29.028V29.0336V29.0392V29.0448V29.0503V29.0559V29.0615V29.0671V29.0726V29.0782V29.0838V29.0894V29.0949V29.1005V29.1061V29.1117V29.1172V29.1228V29.1284V29.134V29.1395V29.1451V29.1507V29.1563V29.1618V29.1674V29.173V29.1785V29.1841V29.1897V29.1953V29.2008V29.2064V29.212V29.2176V29.2231V29.2287V29.2343V29.2399V29.2454V29.251V29.2566V29.2622V29.2677V29.2733V29.2789V29.2845V29.29V29.2956V29.3012V29.3068V29.3123V29.3179V29.3235V29.3291V29.3346V29.3402V29.3458V29.3513V29.3569V29.3625V29.3681V29.3736V29.3792V29.3848V29.3904V29.3959V29.4015V29.4071V29.4127V29.4182V29.4238V29.4294V29.435V29.4405V29.4461V29.4517V29.4573V29.4628V29.4684V29.474V29.4796V29.4851V29.4907V29.4963V29.5019V29.5074V29.513V29.5186V29.5241V29.5297V29.5353V29.5409V29.5464V29.552V29.5576V29.5632V29.5687V29.5743V29.5799V29.5855V29.591V29.5966V29.6022V29.6078V29.6133V29.6189V29.6245V29.6301V29.6356V29.6412V29.6468V29.6524V29.6579V29.6635V29.6691V29.6747V29.6802V29.6858V29.6914V29.6969V29.7025V29.7081V29.7137V29.7192V29.7248V29.7304V29.736V29.7415V29.7471V29.7527V29.7583V29.7638V29.7694V29.775V29.7806V29.7861V29.7917V29.7973V29.8029V29.8084V29.814V29.8196V29.8252V29.8307V29.8363V29.8419V29.8475V29.853V29.8586V29.8642V29.8698V29.8753V29.8809V29.8865V29.892V29.8976V29.9032V29.9088V29.9143V29.9199V29.9255V29.9311V29.9366V29.9422V29.9478V29.9534V29.9589V29.9645V29.9701V29.9757V29.9812V29.9868V29.9924V29.998V30.0035V30.0091V30.0147V30.0203V30.0258V30.0314V30.037V30.0426V30.0481V30.0537V30.0593V30.0648V30.0704V30.076V30.0816V30.0871V30.0927V30.0983V30.1039V30.1094V30.115V30.1206V30.1262V30.1317V30.1373V30.1429V30.1485V30.154V30.1596V30.1652V30.1708V30.1763V30.1819V30.1875V30.1931V30.1986V30.2042V30.2098V30.2153V30.2209V30.2265V30.2321V30.2376V30.2432V30.2488V30.2544V30.2599V30.2655V30.2711V30.2767V30.2822V30.2878V30.2934V30.299V30.3045V30.3101V30.3157V30.3213V30.3268V30.3324V30.338V30.3436V30.3491V30.3547V30.3603V30.3659V30.3714V30.377V30.3826V30.3881V30.3937V30.3993V30.4049V30.4104V30.416V30.4216V30.4272V30.4327V30.4383V30.4439V30.4495V30.455V30.4606V30.4662V30.4718V30.4773V30.4829V30.4885V30.4941V30.4996V30.5052V30.5108V30.5164V30.5219V30.5275V30.5331V30.5387V30.5442V30.5498V30.5554V30.5609V30.5665V30.5721V30.5777V30.5832V30.5888V30.5944V30.6V30.6055V30.6111V30.6167V30.6223V30.6278V30.6334V30.639V30.6446V30.6501V30.6557V30.6613V30.6669V30.6724V30.678V30.6836V30.6892V30.6947V30.7003V30.7059V30.7115V30.717V30.7226V30.7282V30.7337V30.7393V30.7449V30.7505V30.756V30.7616V30.7672V30.7728V30.7783V30.7839V30.7895V30.7951V30.8006V30.8062V30.8118V30.8174V30.8229V30.8285V30.8341V30.8397V30.8452V30.8508V30.8564V30.862V30.8675V30.8731V30.8787V30.8843V30.8898V30.8954V30.901V30.9065V30.9121V30.9177V30.9233V30.9288V30.9344V30.94V30.9456V30.9511V30.9567V30.9623V30.9679V30.9734V30.979V30.9846V30.9902V30.9957V31.0013V31.0069V31.0125V31.018V31.0236V31.0292V31.0348V31.0403V31.0459V31.0515V31.0571V31.0626V31.0682V31.0738V31.0793V31.0849V31.0905V31.0961V31.1016V31.1072V31.1128V31.1184V31.1239V31.1295V31.1351V31.1407V31.1462V31.1518V31.1574V31.163V31.1685V31.1741V31.1797V31.1853V31.1908V31.1964V31.202V31.2076V31.2131V31.2187V31.2243V31.2299V31.2354V31.241V31.2466V31.2521V31.2577V31.2633V31.2689V31.2744V31.28V31.2856V31.2912V31.2967V31.3023V31.3079V31.3135V31.319V31.3246V31.3302V31.3358V31.3413V31.3469V31.3525V31.3581V31.3636V31.3692V31.3748V31.3804V31.3859V31.3915V31.3971V31.4027V31.4082V31.4138V31.4194V31.4249V31.4305V31.4361V31.4417V31.4472V31.4528V31.4584V31.464V31.4695V31.4751V31.4807V31.4863V31.4918V31.4974V31.503V31.5086V31.5141V31.5197V31.5253V31.5309V31.5364V31.542V31.5476V31.5532V31.5587V31.5643V31.5699V31.5755V31.581V31.5866V31.5922V31.5977V31.6033V31.6089V31.6145V31.62V31.6256V31.6312V31.6368V31.6423V31.6527V31.663V31.6734V31.6837V31.694V31.7044V31.7147V31.7251V31.7354V31.7457V31.7561V31.7664V31.7768V31.7871V31.7974V31.8078V31.8181V31.8284V31.8388V31.8491V31.8595V31.8698V31.8801V31.8905V31.9008V31.9111V31.9215V31.9318V31.9421V31.9525V31.9628V31.9731V31.9835V31.9938V32.0041V32.0145V32.0248V32.0351V32.0455V32.0558V32.0661V32.0765V32.0868V32.0971V32.1074V32.1178V32.1281V32.1384V32.1488V32.1591V32.1694V32.1797V32.1901V32.2004V32.2107V32.2211V32.2314V32.2417V32.252V32.2624V32.2727V32.283V32.2933V32.3037V32.314V32.3243V32.3346V32.345V32.3553V32.3656V32.3759V32.3863V32.3966V32.4069V32.4172V32.4276V32.4379V32.4482V32.4585V32.4689V32.4792V32.4895V32.4998V32.5101V32.5205V32.5308V32.5411V32.5514V32.5617V32.5721V32.5824V32.5927V32.603V32.6133V32.6237V32.634V32.6443V32.6546V32.6649V32.6753V32.6856V32.6959V32.7062V32.7165V32.7268V32.7372V32.7475V32.7578V32.7681V32.7784V32.7888V32.7991V32.8094V32.8197V32.83V32.8403V32.8506V32.861V32.8713V32.8816V32.8919V32.9022V32.9125V32.9229V32.9332V32.9435V32.9538V32.9641V32.9744V32.9847V32.9951V33.0054V33.0157V33.026V33.0363V33.0466V33.0569V33.0672V33.0776V33.0879V33.0982V33.1085V33.1188V33.1291V33.1394V33.1497V33.1601V33.1704V33.1807V33.191V33.2013V33.2116V33.2219V33.2322V33.2425V33.2529V33.2632V33.2735V33.2838V33.2941V33.3044V33.3147V33.325V33.3353V33.3456V33.356V33.3663V33.3766V33.3869V33.3972V33.4075V33.4178V33.4281V33.4384V33.4487V33.459V33.4694V33.4797V33.49V33.5003V33.5106V33.5209V33.5312V33.5415V33.5518V33.5621V33.5724V33.5827V33.593V33.6034V33.6137V33.624V33.6343V33.6446V33.6549V33.6652V33.6755V33.6858V33.6961V33.7064V33.7167V33.727V33.7373V33.7477V33.758V33.7683V33.7786V33.7889V33.7992V33.8095V33.8198V33.8301V33.8404V33.8507V33.861V33.8713V33.8816V33.8919V33.9022V33.9125V33.9229V33.9332V33.9435V33.9538V33.9641V33.9744V33.9847V33.995V34.0053V34.0156V34.0259V34.0362V34.0465V34.0568V34.0671V34.0774V34.0877V34.098V34.1083V34.1187V34.129V34.1393V34.1496V34.1599V34.1702V34.1805V34.1908V34.2011V34.2114V34.2217V34.232V34.2423V34.2526V34.2629V34.2732V34.2835V34.2938V34.3041V34.3144V34.3248V34.3351V34.3454V34.3557V34.366V34.3763V34.3866V34.3969V34.4072V34.4175V34.4278V34.4381V34.4484V34.4587V34.469V34.4793V34.4896V34.4999V34.5102V34.5205V34.5309V34.5412V34.5515V34.5618V34.5721V34.5824V34.5927V34.603V34.6133V34.6236V34.6339V34.6442V34.6545V34.6648V34.6751V34.6854V34.6957V34.706V34.7164V34.7267V34.737V34.7473V34.7576V34.7679V34.7782V34.7885V34.7988V34.8091V34.8194V34.8297V34.84V34.8503V34.8606V34.8709V34.8813V34.8916V34.9019V34.9122V34.9225V34.9328V34.9431V34.9534V34.9637V34.974V34.9843V34.9946V35.0049V35.0153V35.0256V35.0359V35.0462V35.0565V35.0668V35.0771V35.0874V35.0977V35.108V35.1183V35.1286V35.1389V35.1493V35.1596V35.1699V35.1802V35.1905V35.2008V35.2111V35.2214V35.2317V35.242V35.2524V35.2627V35.273V35.2833V35.2936V35.3039V35.3142V35.3245V35.3348V35.3451V35.3555V35.3658V35.3761V35.3864V35.3967V35.407V35.4173V35.4276V35.4379V35.4483V35.4586V35.4689V35.4792V35.4895V35.4998V35.5101V35.5204V35.5308V35.5411V35.5514V35.5617V35.572V35.5823V35.5926V35.603V35.6133V35.6236V35.6339V35.6442V35.6545V35.6648V35.6752V35.6855V35.6958V35.7061V35.7164V35.7267V35.7371V35.7474V35.7577V35.768V35.7783V35.7886V35.799V35.8093V35.8196V35.8299V35.8402V35.8505V35.8609V35.8712V35.8815V35.8918V35.9021V35.9124V35.9228V35.9331V35.9434V35.9537V35.964V35.9744V35.9847V35.995V36.0053V36.0156V36.026V36.0363V36.0466V36.0569V36.0673V36.0776V36.0879V36.0982V36.1085V36.1189V36.1292V36.1395V36.1498V36.1602V36.1705V36.1808V36.1911V36.2015V36.2118V36.2221V36.2324V36.2427V36.2531V36.2634V36.2737V36.2841V36.2944V36.3047V36.315V36.3254V36.3357V36.346V36.3563V36.3667V36.377V36.3873V36.3976V36.408V36.4183V36.4247H20.6465V20.1005H24.8412V21.9163V23.7214L25.7692 22.1748L25.7693 22.1746L25.7694 22.1745L25.7696 22.1741L25.7701 22.1733L25.7773 22.1618C25.7845 22.1505 25.7965 22.1321 25.8134 22.107C25.8472 22.0571 25.9007 21.9809 25.9754 21.8832C26.5314 21.1654 28.1073 19.5106 30.9117 19.6243C31.1261 19.6369 31.3206 19.6486 31.5004 19.6711Z" fill="white" stroke="#A2C0C4"/>
<path d="M16.8088 14.1544C16.8088 15.6204 15.6204 16.8088 14.1544 16.8088C12.6884 16.8088 11.5 15.6204 11.5 14.1544C11.5 12.6884 12.6884 11.5 14.1544 11.5C15.6204 11.5 16.8088 12.6884 16.8088 14.1544Z" fill="white" stroke="#A2C0C4"/>
</svg>
