<svg width="9" height="12" viewBox="0 0 9 12" fill="none" xmlns="http://www.w3.org/2000/svg">
<path d="M4.2 0C3.08609 0 2.0178 0.442499 1.23015 1.23015C0.442499 2.0178 0 3.08609 0 4.2C0 7.35 4.2 12 4.2 12C4.2 12 8.4 7.35 8.4 4.2C8.4 3.08609 7.9575 2.0178 7.16985 1.23015C6.3822 0.442499 5.31391 0 4.2 0ZM4.2 5.7C3.90333 5.7 3.61332 5.61203 3.36664 5.4472C3.11997 5.28238 2.92771 5.04811 2.81418 4.77402C2.70065 4.49994 2.67094 4.19834 2.72882 3.90736C2.7867 3.61639 2.92956 3.34912 3.13934 3.13934C3.34912 2.92956 3.61639 2.7867 3.90736 2.72882C4.19834 2.67094 4.49994 2.70065 4.77402 2.81418C5.04811 2.92771 5.28238 3.11997 5.4472 3.36664C5.61203 3.61332 5.7 3.90333 5.7 4.2C5.7 4.59782 5.54196 4.97936 5.26066 5.26066C4.97936 5.54196 4.59782 5.7 4.2 5.7Z" fill="black"/>
</svg>
