<svg width="12" height="12" viewBox="0 0 12 12" fill="none" xmlns="http://www.w3.org/2000/svg">
<path d="M2.413 5.193C3.37941 7.08251 4.91649 8.61959 6.806 9.586L8.273 8.119C8.36022 8.03168 8.47008 7.97044 8.59022 7.94218C8.71035 7.91391 8.836 7.91974 8.953 7.959C9.72107 8.21145 10.5245 8.33973 11.333 8.339C11.5097 8.33953 11.6791 8.40997 11.8041 8.53494C11.929 8.65991 11.9995 8.82926 12 9.006V11.333C11.9995 11.5097 11.929 11.6791 11.8041 11.8041C11.6791 11.929 11.5097 11.9995 11.333 12C9.84469 12.0001 8.37094 11.7071 6.99589 11.1376C5.62085 10.5681 4.37146 9.73333 3.31907 8.68093C2.26667 7.62854 1.4319 6.37915 0.862406 5.00411C0.292916 3.62906 -0.000131298 2.15531 4.41308e-08 0.667C0.000527621 0.490263 0.0709701 0.320915 0.195943 0.195943C0.320915 0.0709701 0.490263 0.000527577 0.667 0H3C3.17674 0.000527577 3.34608 0.0709701 3.47106 0.195943C3.59603 0.320915 3.66647 0.490263 3.667 0.667C3.66582 1.47553 3.79411 2.27903 4.047 3.047C4.0847 3.16471 4.08905 3.29056 4.05957 3.41059C4.03009 3.53062 3.96794 3.64014 3.88 3.727L2.413 5.193Z" fill="black"/>
</svg>
