<svg width="24" height="24" viewBox="0 0 24 24" fill="none" xmlns="http://www.w3.org/2000/svg">
<path d="M4.9957 12C6.34366 10.7981 8.37373 8.98792 8.75654 8.64658C8.79925 8.60851 8.84116 8.5705 8.8782 8.52689C9.11068 8.2532 9.17196 7.89442 9.07 7.57C8.7 6.45 8.5 5.25 8.5 4C8.5 3.45 8.05 3 7.5 3L3 3M12 19.0043L15.41 15.18C15.69 14.9 16.08 14.82 16.43 14.93C17.55 15.3 18.75 15.5 20 15.5C20.55 15.5 21 15.95 21 16.5V21" stroke="#A2C0C4" stroke-width="2" stroke-linecap="round" stroke-linejoin="round"/>
<path d="M3 3V4.00003C3 6.89237 3.72203 9.61582 4.9957 12C5.90664 13.7052 7.09975 15.2368 8.51271 16.5326L8.625 16.6347C9.64563 17.5541 10.7783 18.3516 12 19.0043C14.3842 20.278 17.1077 21 20 21H21" stroke="#A2C0C4" stroke-width="2" stroke-linecap="round" stroke-linejoin="round"/>
</svg>
