<svg width="24" height="24" viewBox="0 0 24 24" fill="none" xmlns="http://www.w3.org/2000/svg">
<path d="M6.0625 10.75H2.9375C2.68886 10.75 2.4504 10.8488 2.27459 11.0246C2.09877 11.2004 2 11.4389 2 11.6875V21.0625C2 21.3111 2.09877 21.5496 2.27459 21.7254C2.4504 21.9012 2.68886 22 2.9375 22H6.0625C6.31114 22 6.5496 21.9012 6.72541 21.7254C6.90123 21.5496 7 21.3111 7 21.0625V11.6875C7 11.4389 6.90123 11.2004 6.72541 11.0246C6.5496 10.8488 6.31114 10.75 6.0625 10.75ZM4.5 20.4375C4.31458 20.4375 4.13332 20.3825 3.97915 20.2795C3.82498 20.1765 3.70482 20.0301 3.63386 19.8588C3.56291 19.6875 3.54434 19.499 3.58051 19.3171C3.61669 19.1352 3.70598 18.9682 3.83709 18.8371C3.9682 18.706 4.13525 18.6167 4.3171 18.5805C4.49896 18.5443 4.68746 18.5629 4.85877 18.6339C5.03007 18.7048 5.17649 18.825 5.2795 18.9792C5.38252 19.1333 5.4375 19.3146 5.4375 19.5C5.4375 19.7486 5.33873 19.9871 5.16291 20.1629C4.9871 20.3387 4.74864 20.4375 4.5 20.4375ZM17 5.18167C17 6.83833 15.9858 7.765 15.7 8.875H19.6733C20.2801 8.8765 20.8623 9.11428 21.2967 9.5379C21.7311 9.96152 21.9833 10.5377 22 11.1442C21.9983 11.8575 21.7272 12.5439 21.2408 13.0658L21.2367 13.07C21.4406 13.5765 21.5143 14.1261 21.4508 14.6684C21.3873 15.2107 21.1888 15.7285 20.8733 16.1742C21.0219 16.6748 21.0411 17.2049 20.9292 17.715C20.8172 18.225 20.5778 18.6984 20.2333 19.0908C20.3236 19.3812 20.3489 19.6879 20.3075 19.9892C20.266 20.2905 20.1587 20.579 19.9933 20.8342C19.195 21.9842 17.2192 22 15.5483 22H15.4375C13.8104 21.9307 12.2179 21.5079 10.7708 20.7608C10.1277 20.431 9.43152 20.2172 8.71417 20.1292C8.59148 20.1268 8.47461 20.0764 8.38862 19.9888C8.30263 19.9013 8.25436 19.7835 8.25417 19.6608V11.31C8.25414 11.248 8.26643 11.1866 8.29032 11.1294C8.31421 11.0722 8.34922 11.0202 8.39333 10.9767C9.94083 9.4475 10.6058 7.82833 11.8742 6.56C12.4055 5.89611 12.7481 5.1013 12.8658 4.25917C13.0358 3.535 13.3992 2 14.1875 2C15.125 2 17 2.3125 17 5.18167Z" fill="#17616C"/>
</svg>
