<svg width="24" height="24" viewBox="0 0 24 24" fill="none" xmlns="http://www.w3.org/2000/svg">
<path d="M2 4.1875V13.5625C2 13.8111 2.09877 14.0496 2.27459 14.2254C2.4504 14.4012 2.68886 14.5 2.9375 14.5H6.0625C6.31114 14.5 6.5496 14.4012 6.72541 14.2254C6.90123 14.0496 7 13.8111 7 13.5625V4.1875C7 3.93886 6.90123 3.7004 6.72541 3.52459C6.5496 3.34877 6.31114 3.25 6.0625 3.25H2.9375C2.68886 3.25 2.4504 3.34877 2.27459 3.52459C2.09877 3.7004 2 3.93886 2 4.1875V4.1875ZM3.5625 12C3.5625 11.8146 3.61748 11.6333 3.7205 11.4792C3.82351 11.325 3.96993 11.2048 4.14123 11.1339C4.31254 11.0629 4.50104 11.0443 4.6829 11.0805C4.86475 11.1167 5.0318 11.206 5.16291 11.3371C5.29402 11.4682 5.38331 11.6352 5.41949 11.8171C5.45566 11.999 5.43709 12.1875 5.36614 12.3588C5.29518 12.5301 5.17502 12.6765 5.02085 12.7795C4.86668 12.8825 4.68542 12.9375 4.5 12.9375C4.25136 12.9375 4.0129 12.8387 3.83709 12.6629C3.66127 12.4871 3.5625 12.2486 3.5625 12ZM14.1875 22C13.3992 22 13.0358 20.465 12.8617 19.7425C12.7439 18.9004 12.4013 18.1056 11.87 17.4417C10.6017 16.1708 9.93667 14.5525 8.38917 13.025C8.34506 12.9814 8.31004 12.9295 8.28615 12.8723C8.26226 12.8151 8.24997 12.7537 8.25 12.6917V4.34C8.25019 4.21729 8.29846 4.09953 8.38445 4.01198C8.47044 3.92444 8.58731 3.87406 8.71 3.87167C9.42736 3.78366 10.1236 3.56983 10.7667 3.24C12.215 2.49212 13.8089 2.06896 15.4375 2L15.5483 2C17.2192 2 19.195 2.01583 19.9925 3.16167C20.1579 3.41687 20.2652 3.70533 20.3066 4.00661C20.3481 4.30788 20.3228 4.6146 20.2325 4.905C20.577 5.29744 20.8164 5.77081 20.9283 6.28087C21.0402 6.79093 21.021 7.32104 20.8725 7.82167C21.1879 8.26737 21.3865 8.7851 21.4499 9.32743C21.5134 9.86975 21.4398 10.4193 21.2358 10.9258L21.24 10.93C21.7276 11.4528 21.9992 12.1409 22 12.8558C21.9833 13.4623 21.7311 14.0385 21.2967 14.4621C20.8623 14.8857 20.2801 15.1235 19.6733 15.125H15.7C15.9858 16.2317 17 17.1617 17 18.8183C17 21.6875 15.125 22 14.1875 22Z" fill="#17616C"/>
</svg>
