<svg width="24" height="24" viewBox="0 0 24 24" fill="none" xmlns="http://www.w3.org/2000/svg">
<path d="M4 9H20" stroke="#A2C0C4" stroke-width="2" stroke-linecap="round" stroke-linejoin="round"/>
<path d="M4 15H20" stroke="#A2C0C4" stroke-width="2" stroke-linecap="round" stroke-linejoin="round"/>
<path d="M9 12C9 6 12 3 12 3C12 3 15 6 15 12C15 18 12 21 12 21C12 21 9 18 9 12Z" stroke="#A2C0C4" stroke-width="2" stroke-linecap="round" stroke-linejoin="round"/>
<path d="M21 12C21 16.9706 16.9706 21 12 21C7.02944 21 3 16.9706 3 12C3 7.02944 7.02944 3 12 3C16.9706 3 21 7.02944 21 12Z" stroke="#A2C0C4" stroke-width="2" stroke-linecap="round" stroke-linejoin="round"/>
</svg>
