<svg width="48" height="48" viewBox="0 0 48 48" fill="none" xmlns="http://www.w3.org/2000/svg">
<rect width="48" height="48" rx="24" fill="#F5F9F9"/>
<path d="M28.8649 12.4233L28.865 12.4234C30.3544 13.0182 31.6897 13.8688 32.8419 14.9449C33.9932 16.0309 34.8969 17.2876 35.5259 18.6846C36.1761 20.1455 36.5099 21.684 36.4998 23.2829V23.2861C36.4998 24.8773 36.1651 26.4273 35.5154 27.8766C34.8862 29.274 33.9822 30.5312 32.8304 31.6174C31.6803 32.702 30.3458 33.5424 28.8543 34.1381L28.8543 34.1381C27.3144 34.7533 25.6817 35.0615 23.9946 35.0615C22.1845 35.0615 20.4606 34.7122 18.8395 34.0152L18.6379 33.9286L18.4376 34.0183L13.6656 36.1555L14.555 31.2824L14.599 31.0417L14.4359 30.8593C12.5337 28.7322 11.5 26.0583 11.5 23.2754C11.5 21.6843 11.8346 20.1345 12.4842 18.6852C13.1134 17.2877 14.0174 16.0304 15.1694 14.9441C16.3195 13.8594 17.6539 13.019 19.1454 12.4234L19.1455 12.4233C20.6853 11.8082 22.3181 11.5 24.0052 11.5C25.6923 11.5 27.325 11.8082 28.8649 12.4233ZM29.6971 24.9807L29.6971 24.9807L29.6926 24.9787C29.0884 24.7153 28.6408 24.5505 28.3159 24.4456L28.3159 24.4456L28.3093 24.4435C28.2961 24.4395 28.2747 24.4324 28.2474 24.4233C28.156 24.393 27.9987 24.3407 27.864 24.308C27.7706 24.2852 27.6551 24.2626 27.538 24.2586C27.4365 24.2551 27.2457 24.2612 27.0723 24.38L27.0722 24.38L27.0645 24.3855C26.8904 24.5097 26.7321 24.6759 26.5967 24.8308C26.5064 24.9341 26.4106 25.051 26.3203 25.1613C26.2766 25.2146 26.2343 25.2663 26.1944 25.3142C26.0633 25.4717 25.945 25.6056 25.8329 25.7088C25.7735 25.7634 25.7239 25.8018 25.6837 25.8281C24.4583 25.579 23.2902 24.8309 22.3322 24.0235L22.329 24.0208C22.1418 23.8658 21.8443 23.5375 21.5538 23.1862C21.3759 22.971 21.2168 22.7669 21.1039 22.6151C21.1249 22.5923 21.1494 22.5669 21.1779 22.5387C21.2269 22.4901 21.2649 22.4545 21.3059 22.416C21.3399 22.3843 21.3758 22.3505 21.4218 22.306C21.4811 22.2485 21.5672 22.1635 21.6363 22.0672C21.8326 21.8658 21.9709 21.6557 22.0451 21.4326C22.1262 21.1893 22.12 20.9637 22.072 20.768C22.0265 20.5826 21.9445 20.4301 21.8885 20.3307C21.8747 20.3061 21.8639 20.2872 21.8546 20.271C21.8413 20.2479 21.8311 20.2302 21.8197 20.2088C21.8083 20.1877 21.8041 20.1779 21.8033 20.1763L21.7904 20.1356L21.7685 20.0947C21.7142 19.9932 21.6414 19.8538 21.5593 19.6965C21.4166 19.4234 21.2459 19.0965 21.0953 18.8214L21.0812 18.7956L21.0641 18.7715C21.0398 18.7374 21.0138 18.6899 20.9786 18.6145C20.9704 18.5969 20.9603 18.5747 20.949 18.5498C20.9217 18.4895 20.8873 18.4136 20.8552 18.3505C20.7545 18.1523 20.5848 17.8809 20.2451 17.7318C19.7829 17.5248 19.343 17.4623 18.9334 17.5209C18.5259 17.5793 18.1807 17.7527 17.8974 17.9684C17.3438 18.3901 16.9894 19.0024 16.7984 19.3822L16.7983 19.3822L16.7937 19.3919C16.1256 20.7954 16.6684 22.4146 17.6707 23.8369C18.6892 25.2823 20.2734 26.6668 21.9988 27.7014C23.7199 28.7334 25.6367 29.4501 27.3332 29.4975C28.1863 29.5213 29.0051 29.3763 29.7141 28.9948C30.4298 28.6098 31.0044 27.9993 31.3826 27.1469L31.3993 27.1095L31.4096 27.0698C31.483 26.7869 31.5238 26.5257 31.485 26.2779C31.4425 26.007 31.3154 25.8142 31.1796 25.6563L31.1276 25.5959L31.0595 25.5547C30.8117 25.4046 30.5524 25.302 30.323 25.2179C30.2601 25.1949 30.2006 25.1736 30.1437 25.1532C29.98 25.0946 29.8374 25.0435 29.6971 24.9807ZM21.0144 22.7305C21.0142 22.7306 21.015 22.7287 21.0171 22.7249C21.0156 22.7286 21.0146 22.7305 21.0144 22.7305ZM25.6682 26.8423L25.7907 26.8629L25.9086 26.8239C26.1483 26.7445 26.3499 26.592 26.51 26.4446C26.6736 26.2941 26.8268 26.1175 26.963 25.954C27.0146 25.892 27.0627 25.8332 27.1088 25.7768C27.1922 25.675 27.2693 25.5808 27.3496 25.489C27.4326 25.394 27.5033 25.3204 27.5639 25.2658C27.5816 25.2691 27.6028 25.2736 27.6275 25.2796C27.6886 25.2945 27.755 25.3146 27.823 25.3366C27.8442 25.3434 27.8695 25.3518 27.8955 25.3604C27.937 25.3741 27.9802 25.3885 28.0115 25.3982C28.3002 25.4915 28.7153 25.6436 29.2908 25.8944C29.4691 25.9741 29.6618 26.0431 29.8335 26.1044C29.8841 26.1225 29.9328 26.14 29.9788 26.1568C30.1636 26.2246 30.3247 26.2897 30.4683 26.368C30.4924 26.4032 30.4949 26.4194 30.497 26.4326L30.497 26.4329C30.5033 26.4728 30.5045 26.5647 30.4517 26.7788C30.1597 27.4177 29.7414 27.8446 29.2404 28.1142C28.7229 28.3925 28.0878 28.5182 27.3612 28.4979C25.898 28.457 24.151 27.8259 22.5131 26.8438C20.8795 25.8643 19.4096 24.5686 18.4881 23.2609C17.5521 21.9326 17.2683 20.7278 17.6944 19.8265C17.8674 19.4832 18.1377 19.0425 18.5033 18.764C18.6807 18.6289 18.8699 18.5402 19.0751 18.5109C19.2775 18.4819 19.5276 18.5059 19.8379 18.6451L19.8379 18.6452L19.8428 18.6473C19.8653 18.6571 19.8996 18.6773 19.9636 18.8033C19.9862 18.8478 20.0034 18.8859 20.0245 18.9327C20.0381 18.9628 20.0533 18.9965 20.0727 19.0379C20.1114 19.1208 20.1622 19.2234 20.2307 19.3244C20.3757 19.5902 20.5267 19.8794 20.6602 20.1353C20.7375 20.2835 20.809 20.4206 20.8702 20.5353C20.9097 20.6361 20.9679 20.7363 21.0011 20.7934C21.0074 20.8043 21.0129 20.8137 21.0171 20.8211C21.0649 20.9061 21.0894 20.96 21.1008 21.0063C21.1097 21.0424 21.1106 21.074 21.0964 21.1166C21.08 21.1657 21.0336 21.2581 20.8973 21.3922L20.8518 21.437L20.819 21.4918C20.8202 21.4897 20.8198 21.4903 20.8166 21.4939C20.8087 21.503 20.7836 21.5319 20.7257 21.588C20.7067 21.6065 20.6774 21.6341 20.6442 21.6655C20.5886 21.7179 20.522 21.7808 20.4739 21.8285C20.3848 21.9168 20.2775 22.0302 20.1936 22.1563C20.1168 22.2719 20.0061 22.4764 20.0349 22.7276L20.048 22.8413L20.1091 22.938C20.2181 23.1102 20.4911 23.4701 20.7831 23.8234C21.0721 24.1729 21.4219 24.5675 21.6894 24.7895C22.739 25.6739 24.1289 26.5825 25.6682 26.8423Z" fill="white" stroke="#A2C0C4"/>
</svg>
