<svg width="48" height="48" viewBox="0 0 48 48" fill="none" xmlns="http://www.w3.org/2000/svg">
<circle cx="24" cy="24" r="24" fill="white"/>
<path d="M41.0999 29.6663L41.1 29.6681C41.1121 32.9389 38.6973 35.5 35.801 35.5H11.799C8.90488 35.5 6.5 32.9268 6.5 29.6663V18.3337C6.5 15.0605 8.91649 12.5 11.799 12.5H35.801C38.6951 12.5 41.0999 15.0732 41.0999 18.3337L41.0999 29.6663ZM31.2544 24.9305L31.9828 24.5L31.2544 24.0695L20.2544 17.5695L19.5 17.1238V18V31V31.8762L20.2544 31.4305L31.2544 24.9305ZM20.5 30.1238V18.8762L30.0172 24.5L20.5 30.1238Z" fill="white" stroke="#A2C0C4"/>
</svg>
